<?xml version="1.0" encoding="utf-8"?>
<!-- Generator: Adobe Illustrator 21.0.2, SVG Export Plug-In . SVG Version: 6.00 Build 0)  -->
<svg version="1.1" xmlns="http://www.w3.org/2000/svg" xmlns:xlink="http://www.w3.org/1999/xlink" x="0px" y="0px"
	 viewBox="0 0 400 400" style="enable-background:new 0 0 400 400;" xml:space="preserve">
<style type="text/css">
	.st0{display:none;}
	.st1{fill:#FFECDC;}
	.st2{fill:#FFFECC;}
	.st3{fill:#FCDBD9;}
	.st4{fill:none;stroke:#E5D8D8;stroke-width:3;stroke-miterlimit:10;}
</style>
<g id="handle_fill_x3F__x3F__x3F_">
</g>
<g id="umbrella">
</g>
<g id="Layer_8" class="st0">
</g>
<g id="handl">
</g>
<g id="sun">
	<g id="XMLID_46_">
		<g>
			<polygon class="st1" points="363.6,280.6 302.9,273.2 319,238.8 			"/>
			<polygon class="st2" points="370.2,124.4 325.9,166.5 309.6,132.2 			"/>
			<polygon class="st3" points="267.4,309.3 277.5,369.6 233.7,327 			"/>
			<polygon class="st2" points="276.9,27.7 268.9,88.4 234.6,72 			"/>
			<polygon class="st3" points="152.1,322.1 134.7,339.6 109,365.5 118.1,305 			"/>
			<polygon class="st2" points="156.9,73.1 123.2,90.6 113.3,30.3 			"/>
			<polygon class="st1" points="68.7,231.4 85.8,265.3 25.3,274.5 			"/>
			<polygon class="st2" points="84,135.2 68.7,170 23.1,129.3 			"/>
		</g>
		<g>
			<polygon class="st4" points="113.3,30.3 123.2,90.6 156.9,73.1 			"/>
			<polygon class="st4" points="277.5,369.6 267.4,309.3 233.7,327 			"/>
			<polygon class="st4" points="276.9,27.7 234.6,72 268.9,88.4 			"/>
			<polygon class="st4" points="370.2,124.4 309.6,132.2 325.9,166.5 			"/>
			<polygon class="st4" points="23.1,129.3 68.7,170 84,135.2 			"/>
			<polygon class="st4" points="109,365.5 134.7,339.6 152.1,322.1 118.1,305 			"/>
			<polygon class="st4" points="25.3,274.5 85.8,265.3 68.7,231.4 			"/>
			<polygon class="st4" points="363.6,280.6 319,238.8 302.9,273.2 			"/>
		</g>
	</g>
</g>
<g id="Layer_11">
</g>
<g id="Layer_12">
</g>
<g id="Layer_13">
	<g id="XMLID_4_">
		<g>
			<path class="st2" d="M216.6,86.5c58.1,10.3,97.9,63.3,92.8,121l-0.5,0H84.3c-0.8-9.6-0.4-19.5,1.3-29.5
				C96.5,116.6,155.2,75.6,216.6,86.5z"/>
			<path class="st1" d="M309,207.5l0.5,0c-0.3,3.3-0.7,6.7-1.3,10c-4.6,26-17.8,48.3-36,64.5L272,282l-151-2l-0.8,0.8
				c-20.4-18.9-33.5-44.9-36-73.3H309z"/>
			<path class="st3" d="M272,282l0.1,0.1c-25,22.3-59.5,33.2-95,26.9c-22.1-3.9-41.5-14-56.9-28.2l0.8-0.8L272,282z"/>
		</g>
		<g>
			<path class="st4" d="M309.5,207.5c-0.3,3.3-0.7,6.7-1.3,10c-4.6,26-17.8,48.3-36,64.5c-25,22.3-59.5,33.2-95,26.9
				c-22.1-3.9-41.5-14-56.9-28.2c-20.4-18.9-33.5-44.9-36-73.3c-0.8-9.6-0.4-19.5,1.3-29.5c10.9-61.4,69.6-102.4,131-91.5
				C274.8,96.8,314.5,149.9,309.5,207.5z"/>
		</g>
	</g>
</g>
<g id="Layer_7">
</g>
</svg>
