<?xml version="1.0" encoding="utf-8"?>
<!-- Generator: Adobe Illustrator 21.0.2, SVG Export Plug-In . SVG Version: 6.00 Build 0)  -->
<svg version="1.1" xmlns="http://www.w3.org/2000/svg" xmlns:xlink="http://www.w3.org/1999/xlink" x="0px" y="0px"
	 viewBox="0 0 400 400" style="enable-background:new 0 0 400 400;" xml:space="preserve">
<style type="text/css">
	.st0{fill:#E6E6E6;}
	.st1{fill:#D7E9F9;stroke:#CCCCCC;stroke-width:3;stroke-miterlimit:10;}
	.st2{fill:#EBF5FC;}
	.st3{fill:#DFECF7;}
	.st4{fill:#D7E9F9;}
	.st5{fill:none;stroke:#CCCCCC;stroke-width:3;stroke-miterlimit:10;}
	.st6{display:none;}
</style>
<g id="handle_fill_x3F__x3F__x3F_">
	<g>
		<g>
			<path class="st0" d="M201.8,197.9c-1.2-3.3-2.4-6.7-3.5-10.1c-3.9,1.1-7.7,2.1-11.6,3.2c1.3,3.2,2.7,6.4,4,9.6
				c1.3,3,5.6,3.7,8.2,2.2c3.1-1.8,3.5-5.2,2.2-8.2c-1-2.3-1.9-4.3-2.8-6.8c-1.2-3-4-5.1-7.4-4.2c-3,0.8-5.2,4.3-4.2,7.4
				c1.1,3.4,2.3,6.7,3.5,10.1c1.1,3,4.1,5.1,7.4,4.2C200.5,204.5,202.9,201,201.8,197.9L201.8,197.9z"/>
		</g>
	</g>
	<g>
		<g>
			<path class="st0" d="M191.3,206.3c0.5,1,1,2.1,1.5,3.1c0.6,1.3,2.2,2.4,3.6,2.8c1.4,0.4,3.3,0.2,4.6-0.6c1.3-0.8,2.4-2.1,2.8-3.6
				c0.4-1.6,0.1-3.1-0.6-4.6c-0.5-1-1-2.1-1.5-3.1c-0.6-1.3-2.2-2.4-3.6-2.8c-1.4-0.4-3.3-0.2-4.6,0.6c-1.3,0.8-2.4,2.1-2.8,3.6
				C190.3,203.3,190.6,204.8,191.3,206.3L191.3,206.3z"/>
		</g>
	</g>
	<g>
		<g>
			<path class="st0" d="M332.9,321c-0.6-2.6-1.3-5.2-1.8-7.9c-0.6-3.1-4.5-5.1-7.4-4.2c-3.3,1.1-4.8,4.1-4.2,7.4
				c0.5,2.6,1.2,5.3,1.8,7.9c0.7,3.1,4.4,5.2,7.4,4.2C331.9,327.4,333.7,324.3,332.9,321L332.9,321z"/>
		</g>
	</g>
	<g>
		<g>
			<path class="st0" d="M204.9,244.3c9.4,22.2,19.9,44,33.7,63.7c6.7,9.6,14.1,18.8,22.3,27.1c8.7,8.8,17.9,17.9,28.9,23.7
				c6.8,3.6,12.9-6.8,6.1-10.4c-10.4-5.4-19-14.1-27.1-22.4c-8.1-8.3-15.3-17.3-21.7-26.8c-12.9-19-22.9-39.8-31.8-61
				c-1.3-3-5.7-3.6-8.2-2.2C204,237.9,203.7,241.4,204.9,244.3L204.9,244.3z"/>
		</g>
	</g>
	<g>
		<g>
			<path class="st0" d="M184.8,190c-1,11.5,3.7,21.6,9.4,31.2c4,6.6,14.3,0.6,10.4-6.1c-4.8-8-8.7-15.7-7.8-25.2
				C197.5,182.3,185.5,182.4,184.8,190L184.8,190z"/>
		</g>
	</g>
	<g>
		<g>
			<path class="st0" d="M304.7,347c-5.2-1-10.2-2.3-15.1-4.4c-6.9-2.9-13,6.4-6.1,10.4c11.2,6.4,25.3,5.7,35.4-2.6
				c10.4-8.5,10.8-21.5,13.3-33.6c1.5-7.5-10-10.8-11.6-3.2c-1.7,8.2-1.5,18.5-7,25.3c-5.8,7.2-16.4,8.2-24.1,3.7
				c-2,3.5-4,6.9-6.1,10.4c5.8,2.5,11.7,4.4,17.9,5.6C309.1,359.9,312.3,348.4,304.7,347L304.7,347z"/>
		</g>
	</g>
	<g>
		<g>
			<path class="st0" d="M216.2,263c9.9,20.8,21,41.1,35.1,59.3c7,9.1,14.6,17.6,23.1,25.4c8.2,7.5,16.6,12.9,28.2,11.5
				c7.6-0.9,7.7-12.9,0-12c-4.3,0.5-8.9,0.3-12.7-2.1c-4.1-2.6-7.8-6.6-11.3-10c-7.6-7.4-14.6-15.5-20.9-24.1
				c-12.3-16.8-22.2-35.3-31.1-54.1C223.2,249.9,212.9,256,216.2,263L216.2,263z"/>
		</g>
	</g>
	<g>
		<g>
			<path class="st0" d="M268.3,327c-1.3,0.1-1.2,0.2-2.5-0.2c-2.8-0.9-6,0.8-7,3.4c-1,2.5-0.3,6.2,2.4,7.4c0.3,0.1,1.9,1.2,1,0.4
				c0.4,0.3,0.8,0.7,1.1,1.1c0.2,0.3,0.5,0.5,0.7,0.8c-0.4-0.5-0.3-0.5,0.1,0.1c0.4,0.5,0.8,1,1.2,1.5c2.3,3,4.6,5.1,8.2,6.6
				c3,1.2,6.5-1.3,7.3-4.2c0.9-3.4-1.2-6.1-4.2-7.3c0.6,0.2,0.6,0.2,0-0.1c0.5,0.4,0.5,0.4,0,0c-0.4-0.4-0.7-0.8-1.1-1.2
				c-1.2-1.2,0.6,0.9-0.4-0.5c-0.4-0.5-0.8-1-1.2-1.5c-1.8-2.4-3.8-4.8-6.7-6.1c-1.5,3.6-3.1,7.3-4.6,10.9c1.8,0.6,3.8,0.8,5.7,0.6
				c3.2-0.3,6-2.5,6-6C274.3,330,271.5,326.7,268.3,327L268.3,327z"/>
		</g>
	</g>
	<g>
		<g>
			<path class="st0" d="M277.4,347c-0.2,3,1.6,5.7,4,7.4c0.8,0.5,1.8,1,2.7,1.2c1.4,0.3,3.1,0.4,4.5-0.2c1.4-0.6,2.8-1.3,3.6-2.7
				c0.6-1.2,0.9-2.4,0.7-3.8c-0.4-2.8-2.9-5.3-5.8-5.2c-0.6,0-1.2,0-1.7,0.1c-1.6,0.1-3.1,0.6-4.2,1.7c-1,1-1.8,2.7-1.7,4.2
				c0.1,3.1,2.6,6.1,6,6c0.6,0,1.2,0,1.7-0.1c-0.5-3.9-1.1-7.8-1.6-11.7c-0.2,0.1-0.4,0.2-0.7,0.2c0.5-0.1,1.1-0.1,1.6-0.2
				c-0.2,0-0.3,0-0.5,0c0.5,0.1,1.1,0.1,1.6,0.2c-0.2,0-0.5-0.1-0.7-0.2c0.5,0.2,0.9,0.4,1.4,0.6c-0.3-0.1-0.5-0.3-0.8-0.5
				c0.4,0.3,0.8,0.6,1.2,0.9c-0.2-0.2-0.3-0.3-0.5-0.5c0.3,0.4,0.6,0.8,0.9,1.2c-0.1-0.2-0.3-0.4-0.4-0.6c0.2,0.5,0.4,0.9,0.6,1.4
				c-0.1-0.2-0.1-0.3-0.1-0.5c0.1,0.5,0.1,1.1,0.2,1.6c0-0.2,0-0.3,0-0.5c0.2-3.1-2.9-6.1-6-6C280,341.2,277.6,343.7,277.4,347
				L277.4,347z"/>
		</g>
	</g>
	<g>
		<g>
			<path class="st0" d="M273.8,346.2c4.3,4.3,9.7,7.4,15.6,8.9c7.4,1.9,10.6-9.5,3.2-11.5c-4-1-7.4-3-10.3-5.9
				C276.8,332.3,268.4,340.7,273.8,346.2L273.8,346.2z"/>
		</g>
	</g>
	<g>
		<g>
			<path class="st0" d="M200.6,221.2c-4.5,1.3,0.9,9.8,2,12.1c0.9-0.5,1.7-1,2.6-1.5c-2.6-4-5.1-7.9-7.7-11.9
				c-1-1.6-3.5-0.2-2.6,1.5c1.9,3.5,3.7,7.1,5.6,10.6c0.9,1.7,3.3,0.2,2.6-1.5c-1.5-3.4-3.4-6.2-6-8.8c-1.3-1.3-3,0.3-2.3,1.8
				c2.5,5.3,5,10.6,7.5,15.9c0.7,1.6,3.1,0.4,2.7-1.1c-1.1-4.4-2.7-8.7-4.5-12.9c-0.8-1.7-3.3-0.2-2.6,1.5c2.6,5.8,5.6,11.5,8.8,17
				c1,1.6,3.6,0.1,2.6-1.5c-3.3-5.5-6.2-11.1-8.8-17c-0.9,0.5-1.7,1-2.6,1.5c1.8,4,3.2,8,4.2,12.2c0.9-0.4,1.8-0.8,2.7-1.1
				c-2.5-5.3-5-10.6-7.5-15.9c-0.8,0.6-1.6,1.2-2.3,1.8c2.4,2.4,4.2,5.1,5.6,8.2c0.9-0.5,1.7-1,2.6-1.5c-1.9-3.5-3.7-7.1-5.6-10.6
				c-0.9,0.5-1.7,1-2.6,1.5c2.6,4,5.1,7.9,7.7,11.9c1.1,1.6,3.4,0.2,2.6-1.5c-0.3-0.7-2.9-7.9-3.8-7.7
				C203.2,223.5,202.5,220.7,200.6,221.2L200.6,221.2z"/>
		</g>
	</g>
	<g>
		<g>
			<path class="st0" d="M200.5,230c0.1,3.7,0.6,7.2,1.6,10.8c0.4,1.6,3.1,1.3,2.9-0.4c-0.8-7.5-2.4-14.8-4.1-22.1
				c-0.9,0.4-1.8,0.8-2.7,1.1c3.1,5.8,6.1,11.5,9.2,17.3c0.8,1.5,3.1,0.5,2.7-1.1c-2-7.7-4.6-15.2-7.8-22.5
				c-0.6-1.3-2.9-0.7-2.8,0.8c1.4,11.4,5.8,21.8,10.4,32.2c0.9-0.5,1.7-1,2.6-1.5c-3.8-6.7-7.6-13.5-11.5-20.2
				c-0.9,0.5-1.7,1-2.6,1.5c3.8,5.3,7.8,10.3,12.3,15.1c1.3,1.4,3.4-0.7,2.1-2.1c-4.2-4.6-8.2-9.4-11.8-14.5
				c-1.1-1.5-3.5-0.2-2.6,1.5c3.8,6.7,7.6,13.5,11.5,20.2c1,1.7,3.3,0.2,2.6-1.5c-4.4-9.9-8.7-19.9-10-30.7
				c-0.9,0.3-1.8,0.5-2.8,0.8c3.1,7.1,5.5,14.4,7.5,21.8c0.9-0.4,1.8-0.8,2.7-1.1c-3.1-5.8-6.1-11.5-9.2-17.3
				c-0.8-1.5-3.1-0.5-2.7,1.1c1.7,7,3.3,14.1,4,21.3c1-0.1,1.9-0.3,2.9-0.4c-0.9-3.3-1.4-6.6-1.5-10
				C203.4,228.1,200.4,228.1,200.5,230L200.5,230z"/>
		</g>
	</g>
	<g>
		<g>
			<path class="st0" d="M196.7,195.1c5.4,11.1,8.4,22.8,12.8,34.3c4.2,11.1,9.4,21.9,15.4,32.1c1,1.7,3.5,0.2,2.6-1.5
				c-6.5-11.1-12-22.7-16.4-34.8c-3.9-10.7-6.8-21.3-11.8-31.6C198.4,191.9,195.8,193.4,196.7,195.1L196.7,195.1z"/>
		</g>
	</g>
	<g>
		<g>
			<path class="st0" d="M198.3,208.4c1.8,11.1,10.1,19.8,11.9,30.9c1-0.3,1.9-0.5,2.9-0.8c-4.2-10.7-8.3-21.4-11.8-32.3
				c-1,0.3-1.9,0.5-2.9,0.8c1.7,4.9,3.6,9.6,6,14.2c0.9,1.7,3.4,0.2,2.6-1.5c-2.2-4.4-4.1-8.9-5.7-13.5c-0.6-1.8-3.5-1-2.9,0.8
				c3.5,10.9,7.7,21.6,11.8,32.3c0.7,1.8,3.2,1.1,2.9-0.8c-1.7-11.2-10-19.8-11.9-30.9C200.9,205.7,198,206.5,198.3,208.4
				L198.3,208.4z"/>
		</g>
	</g>
	<g>
		<g>
			<path class="st0" d="M196.8,195.4c6.6,11.1,8.4,23.6,13.5,35.3c5.4,12.4,11.1,24.7,16.8,37c0.8,1.7,3.4,0.2,2.6-1.5
				c-5.8-12.2-11.5-24.5-16.8-37c-5.1-11.7-6.8-24.2-13.5-35.3C198.4,192.3,195.8,193.8,196.8,195.4L196.8,195.4z"/>
		</g>
	</g>
	<g>
		<g>
			<path class="st0" d="M198.3,196.4c8.2,23.9,17.6,47.2,28.3,70.1c0.9-0.5,1.7-1,2.6-1.5c-2.7-5.1-5.5-10.3-8.2-15.4
				c-0.9-1.7-3.3-0.2-2.6,1.5c2,4.5,4.5,8.7,7.5,12.6c1.1,1.5,3.7,0,2.6-1.5c-3-3.9-5.5-8.1-7.5-12.6c-0.9,0.5-1.7,1-2.6,1.5
				c2.7,5.1,5.5,10.3,8.2,15.4c0.9,1.7,3.4,0.2,2.6-1.5c-10.5-22.6-19.9-45.8-28-69.4C200.6,193.8,197.7,194.5,198.3,196.4
				L198.3,196.4z"/>
		</g>
	</g>
	<g>
		<g>
			<path class="st0" d="M221.2,252.7c0.6,2.1,1.6,4.2,2.8,6c1.1,1.6,3.6,0.1,2.6-1.5c-1.1-1.7-1.9-3.4-2.5-5.3
				C223.6,250.1,220.7,250.9,221.2,252.7L221.2,252.7z"/>
		</g>
	</g>
	<g>
		<g>
			<path class="st0" d="M216.1,245c2,3.6,4,7.2,6,10.9c0.8,1.5,3.3,0.5,2.7-1.1c-2.6-7.4-9.7-13.2-9.8-21.4c0-1.9-3-1.9-3,0
				c0.1,8.8,7.1,14.4,9.9,22.2c0.9-0.4,1.8-0.8,2.7-1.1c-2-3.6-4-7.2-6-10.9C217.8,241.9,215.2,243.4,216.1,245L216.1,245z"/>
		</g>
	</g>
</g>
<g id="umbrella">
	<path class="st1" d="M328.5,27.5"/>
	<g id="XMLID_67_">
		<g>
			<path class="st2" d="M377.5,99.5c18.4,0.5-85.6,3.7-98,82c0.5,0.8-0.3,1-2.1,0.8C210.7,35.4,128.5,49.5,128.5,49.5l-0.1-0.2
				c24.1-10.9,53.4-18.6,88.9-21.9C328.1,17.2,377.5,99.5,377.5,99.5z"/>
			<path class="st3" d="M277.4,182.3c-14.4-1.2-95.3-24.9-132.9,70.2c0,0-1-0.3-2.9-0.6c-17.8-11.8-50.7-162.7-13.1-202.4
				C128.5,49.5,210.7,35.4,277.4,182.3z"/>
			<path class="st4" d="M128.4,49.3l0.1,0.2c-37.6,39.7-4.8,190.6,13.1,202.4c-13.2-2.3-68.3-8.4-107.1,41.6
				C25.7,297.7-18.4,115.5,128.4,49.3z"/>
		</g>
		<g>
			<path class="st5" d="M128.4,49.3c24.1-10.9,53.4-18.6,88.9-21.9c110.9-10.2,160.2,72.1,160.2,72.1c18.4,0.5-85.6,3.7-98,82
				c0.5,0.8-0.3,1-2.1,0.8c-14.4-1.2-95.3-24.9-132.9,70.2c0,0-1-0.3-2.9-0.6c-13.2-2.3-68.3-8.4-107.1,41.6
				C25.7,297.7-18.4,115.5,128.4,49.3z"/>
			<path class="st5" d="M144.5,252.5c-0.9,0.3-1.9,0.1-2.9-0.6c-17.8-11.8-50.7-162.7-13.1-202.4c0,0,82.2-14.1,148.9,132.8
				c0,0.1,0,0.1,0.1,0.2"/>
		</g>
	</g>
</g>
<g id="Layer_8" class="st6">
</g>
<g id="handl">
	<path class="st5" d="M332.5,314.5c0,16.8-6.5,40.5-27.5,43.5c-8,1-15,0-22-3c-16-7-26-21-36-36c-28-41-48.1-77.5-62.5-122.5"/>
	<path class="st5" d="M207.5,183.5C226,238,249,292,290,334c-2.4-2,17.3,13.8,20.5-19.5"/>
	<path class="st5" d="M310,317c-0.2-4.9,13.2-19.6,23,0"/>
</g>
<g id="Layer_11">
</g>
<g id="Layer_12">
</g>
<g id="Layer_7">
</g>
</svg>
