<?xml version="1.0" encoding="utf-8"?>
<!-- Generator: Adobe Illustrator 21.0.2, SVG Export Plug-In . SVG Version: 6.00 Build 0)  -->
<svg version="1.1" xmlns="http://www.w3.org/2000/svg" xmlns:xlink="http://www.w3.org/1999/xlink" x="0px" y="0px"
	 viewBox="0 0 700 400" style="enable-background:new 0 0 700 400;" xml:space="preserve">
<style type="text/css">
	.st0{fill:#F7F7F7;}
	.st1{fill:#FFFFFF;}
	.st2{fill:#CCCCCC;}
	.st3{fill:none;stroke:#CCCCCC;stroke-miterlimit:10;}
	.st4{fill:none;}
	.st5{fill:#999999;}
	.st6{font-family:'OpenSans-Light';}
	.st7{font-size:24px;}
	.st8{fill:#808080;}
	.st9{font-size:72px;}
	.st10{fill:#B3B3B3;}
	.st11{fill:#E6E6E6;}
	.st12{fill:#D7E9F9;stroke:#CCCCCC;stroke-width:3;stroke-miterlimit:10;}
	.st13{fill:#EBF5FC;}
	.st14{fill:#DFECF7;}
	.st15{fill:#D7E9F9;}
	.st16{fill:#FFECDC;}
	.st17{fill:#FFFECC;}
	.st18{fill:#FCDBD9;}
	.st19{fill:none;stroke:#E5D8D8;stroke-miterlimit:10;}
	.st20{fill:none;stroke:#CCCCCC;stroke-width:3;stroke-miterlimit:10;}
</style>
<g id="Layer_7_3_">
	<rect x="-1" y="-1" class="st0" width="702" height="401"/>
</g>
<g id="Layer_1">
	<g>
		<path class="st1" d="M306,343.5c-6.3,0-11.5-5.2-11.5-11.5V55c0-6.3,5.2-11.5,11.5-11.5h343c6.3,0,11.5,5.2,11.5,11.5v277
			c0,6.3-5.2,11.5-11.5,11.5H306z"/>
		<path class="st2" d="M649,44c6.1,0,11,4.9,11,11v277c0,6.1-4.9,11-11,11H306c-6.1,0-11-4.9-11-11V55c0-6.1,4.9-11,11-11H649
			 M649,43H306c-6.6,0-12,5.4-12,12v277c0,6.6,5.4,12,12,12h343c6.6,0,12-5.4,12-12V55C661,48.4,655.6,43,649,43L649,43z"/>
	</g>
	<g>
		<line class="st3" x1="293.5" y1="100.5" x2="660.5" y2="100.5"/>
	</g>
	<g>
		<line class="st3" x1="294" y1="214.5" x2="661" y2="214.5"/>
	</g>
	<g>
		<line class="st3" x1="294" y1="246.5" x2="661" y2="246.5"/>
	</g>
	<rect x="339" y="63" class="st4" width="291" height="25"/>
	<text transform="matrix(1 0 0 1 388.9805 81.2397)" class="st5 st6 st7">february 11, 2017</text>
	<rect x="294" y="123" class="st4" width="366" height="71"/>
	<text transform="matrix(1 0 0 1 348.6797 177.7197)" class="st8 st6 st9">43째 rain</text>
	<text transform="matrix(1 0 0 1 338.7363 238)" class="st10 st6 st7">12 | 66째</text>
	<text transform="matrix(1 0 0 1 447.7363 238)" class="st10 st6 st7">13 | 40째</text>
	<text transform="matrix(1 0 0 1 560.7363 238)" class="st10 st6 st7">14 | 32째</text>
</g>
<g id="Layer_3">
	<line class="st3" x1="435.5" y1="216" x2="435.5" y2="342"/>
	<path class="st3" d="M489.5,342"/>
	<path class="st3" d="M489.5,228"/>
	<line class="st3" x1="551.5" y1="215" x2="551.5" y2="344"/>
</g>
<g id="Layer_4">
	<g id="handle_fill_x3F__x3F__x3F__1_">
		<g>
			<g>
				<path class="st11" d="M493.1,296.4c-0.3-0.8-0.6-1.6-0.8-2.4c-0.9,0.3-1.8,0.5-2.7,0.8c0.3,0.8,0.6,1.5,0.9,2.3
					c0.3,0.7,1.3,0.9,1.9,0.5c0.7-0.4,0.8-1.3,0.5-2c-0.2-0.6-0.4-1-0.7-1.6c-0.3-0.7-0.9-1.2-1.7-1c-0.7,0.2-1.2,1-1,1.8
					c0.3,0.8,0.5,1.6,0.8,2.4c0.3,0.7,1,1.2,1.7,1C492.8,298,493.4,297.2,493.1,296.4L493.1,296.4z"/>
			</g>
		</g>
		<g>
			<g>
				<path class="st11" d="M490.7,298.5c0.1,0.2,0.2,0.5,0.4,0.7c0.1,0.3,0.5,0.6,0.8,0.7s0.8,0,1.1-0.1c0.3-0.2,0.6-0.5,0.7-0.9
					c0.1-0.4,0-0.7-0.1-1.1c-0.1-0.2-0.2-0.5-0.4-0.7c-0.1-0.3-0.5-0.6-0.8-0.7c-0.3-0.1-0.8,0-1.1,0.1c-0.3,0.2-0.6,0.5-0.7,0.9
					C490.4,297.8,490.5,298.1,490.7,298.5L490.7,298.5z"/>
			</g>
		</g>
		<g>
			<g>
				<path class="st11" d="M523.7,326.2c-0.1-0.6-0.3-1.3-0.4-1.9c-0.1-0.7-1.1-1.2-1.7-1c-0.8,0.3-1.1,1-1,1.8
					c0.1,0.6,0.3,1.3,0.4,1.9c0.2,0.7,1,1.3,1.7,1C523.5,327.8,523.9,327,523.7,326.2L523.7,326.2z"/>
			</g>
		</g>
		<g>
			<g>
				<path class="st11" d="M493.8,307.7c2.2,5.4,4.6,10.6,7.9,15.4c1.6,2.3,3.3,4.5,5.2,6.6c2,2.1,4.2,4.3,6.8,5.7
					c1.6,0.9,3-1.6,1.4-2.5c-2.4-1.3-4.4-3.4-6.3-5.4s-3.6-4.2-5.1-6.5c-3-4.6-5.3-9.6-7.4-14.8c-0.3-0.7-1.3-0.9-1.9-0.5
					C493.6,306.1,493.6,307,493.8,307.7L493.8,307.7z"/>
			</g>
		</g>
		<g>
			<g>
				<path class="st11" d="M489.2,294.5c-0.2,2.8,0.9,5.2,2.2,7.5c0.9,1.6,3.3,0.1,2.4-1.5c-1.1-1.9-2-3.8-1.8-6.1
					C492.1,292.7,489.3,292.7,489.2,294.5L489.2,294.5z"/>
			</g>
		</g>
		<g>
			<g>
				<path class="st11" d="M517.2,332.5c-1.2-0.2-2.4-0.6-3.5-1.1c-1.6-0.7-3,1.5-1.4,2.5c2.6,1.5,5.9,1.4,8.3-0.6
					c2.4-2.1,2.5-5.2,3.1-8.1c0.4-1.8-2.3-2.6-2.7-0.8c-0.4,2-0.4,4.5-1.6,6.1c-1.4,1.7-3.8,2-5.6,0.9c-0.5,0.8-0.9,1.7-1.4,2.5
					c1.4,0.6,2.7,1.1,4.2,1.4C518.2,335.6,518.9,332.9,517.2,332.5L517.2,332.5z"/>
			</g>
		</g>
		<g>
			<g>
				<path class="st11" d="M496.5,312.2c2.3,5,4.9,9.9,8.2,14.3c1.6,2.2,3.4,4.3,5.4,6.1c1.9,1.8,3.9,3.1,6.6,2.8
					c1.8-0.2,1.8-3.1,0-2.9c-1,0.1-2.1,0.1-3-0.5c-1-0.6-1.8-1.6-2.6-2.4c-1.8-1.8-3.4-3.7-4.9-5.8c-2.9-4.1-5.2-8.5-7.3-13.1
					C498.1,309,495.7,310.5,496.5,312.2L496.5,312.2z"/>
			</g>
		</g>
		<g>
			<g>
				<path class="st11" d="M508.7,327.7c-0.3,0-0.3,0-0.6,0c-0.7-0.2-1.4,0.2-1.6,0.8c-0.2,0.6-0.1,1.5,0.6,1.8
					c0.1,0,0.4,0.3,0.2,0.1c0.1,0.1,0.2,0.2,0.3,0.3c0,0.1,0.1,0.1,0.2,0.2c-0.1-0.1-0.1-0.1,0,0c0.1,0.1,0.2,0.2,0.3,0.4
					c0.5,0.7,1.1,1.2,1.9,1.6c0.7,0.3,1.5-0.3,1.7-1c0.2-0.8-0.3-1.5-1-1.8c0.1,0,0.1,0,0,0c0.1,0.1,0.1,0.1,0,0
					c-0.1-0.1-0.2-0.2-0.3-0.3c-0.3-0.3,0.1,0.2-0.1-0.1c-0.1-0.1-0.2-0.2-0.3-0.4c-0.4-0.6-0.9-1.2-1.6-1.5
					c-0.4,0.9-0.7,1.8-1.1,2.6c0.4,0.1,0.9,0.2,1.3,0.1c0.7-0.1,1.4-0.6,1.4-1.5C510.1,328.4,509.4,327.6,508.7,327.7L508.7,327.7z"
					/>
			</g>
		</g>
		<g>
			<g>
				<path class="st11" d="M510.8,332.5c0,0.7,0.4,1.4,0.9,1.8c0.2,0.1,0.4,0.2,0.6,0.3c0.3,0.1,0.7,0.1,1.1,0
					c0.3-0.1,0.7-0.3,0.8-0.7c0.1-0.3,0.2-0.6,0.2-0.9c-0.1-0.7-0.7-1.3-1.4-1.3c-0.1,0-0.3,0-0.4,0c-0.4,0-0.7,0.1-1,0.4
					c-0.2,0.2-0.4,0.7-0.4,1c0,0.7,0.6,1.5,1.4,1.5c0.1,0,0.3,0,0.4,0c-0.1-0.9-0.3-1.9-0.4-2.8c0,0-0.1,0-0.2,0c0.1,0,0.3,0,0.4,0
					c0,0-0.1,0-0.1,0c0.1,0,0.3,0,0.4,0c0,0-0.1,0-0.2,0c0.1,0,0.2,0.1,0.3,0.1c-0.1,0-0.1-0.1-0.2-0.1c0.1,0.1,0.2,0.1,0.3,0.2
					c0,0-0.1-0.1-0.1-0.1c0.1,0.1,0.1,0.2,0.2,0.3c0,0-0.1-0.1-0.1-0.1c0,0.1,0.1,0.2,0.1,0.3c0,0,0-0.1,0-0.1c0,0.1,0,0.3,0,0.4
					c0,0,0-0.1,0-0.1c0-0.7-0.7-1.5-1.4-1.5C511.4,331.1,510.8,331.7,510.8,332.5L510.8,332.5z"/>
			</g>
		</g>
		<g>
			<g>
				<path class="st11" d="M509.9,332.3c1,1,2.3,1.8,3.6,2.2c1.7,0.5,2.5-2.3,0.7-2.8c-0.9-0.2-1.7-0.7-2.4-1.4
					C510.6,329,508.7,331,509.9,332.3L509.9,332.3z"/>
			</g>
		</g>
		<g>
			<g>
				<path class="st11" d="M492.8,302.1c-1.1,0.3,0.2,2.4,0.5,2.9c0.2-0.1,0.4-0.2,0.6-0.4c-0.6-1-1.2-1.9-1.8-2.9
					c-0.2-0.4-0.8,0-0.6,0.4c0.4,0.8,0.9,1.7,1.3,2.6c0.2,0.4,0.8,0,0.6-0.4c-0.4-0.8-0.8-1.5-1.4-2.1c-0.3-0.3-0.7,0.1-0.5,0.4
					c0.6,1.3,1.2,2.6,1.8,3.8c0.2,0.4,0.7,0.1,0.6-0.3c-0.3-1.1-0.6-2.1-1.1-3.1c-0.2-0.4-0.8,0-0.6,0.4c0.6,1.4,1.3,2.8,2.1,4.1
					c0.2,0.4,0.8,0,0.6-0.4c-0.8-1.3-1.4-2.7-2.1-4.1c-0.2,0.1-0.4,0.2-0.6,0.4c0.4,1,0.7,1.9,1,3c0.2-0.1,0.4-0.2,0.6-0.3
					c-0.6-1.3-1.2-2.6-1.8-3.8c-0.2,0.1-0.4,0.3-0.5,0.4c0.6,0.6,1,1.2,1.3,2c0.2-0.1,0.4-0.2,0.6-0.4c-0.4-0.8-0.9-1.7-1.3-2.6
					c-0.2,0.1-0.4,0.2-0.6,0.4c0.6,1,1.2,1.9,1.8,2.9c0.3,0.4,0.8,0,0.6-0.4c-0.1-0.2-0.7-1.9-0.9-1.9
					C493.5,302.6,493.3,302,492.8,302.1L492.8,302.1z"/>
			</g>
		</g>
		<g>
			<g>
				<path class="st11" d="M492.8,304.2c0,0.9,0.1,1.7,0.4,2.6c0.1,0.4,0.7,0.3,0.7-0.1c-0.2-1.8-0.6-3.6-1-5.3
					c-0.2,0.1-0.4,0.2-0.6,0.3c0.7,1.4,1.4,2.8,2.1,4.2c0.2,0.4,0.7,0.1,0.6-0.3c-0.5-1.9-1.1-3.7-1.8-5.4c-0.1-0.3-0.7-0.2-0.7,0.2
					c0.3,2.8,1.4,5.3,2.4,7.8c0.2-0.1,0.4-0.2,0.6-0.4c-0.9-1.6-1.8-3.3-2.7-4.9c-0.2,0.1-0.4,0.2-0.6,0.4c0.9,1.3,1.8,2.5,2.9,3.7
					c0.3,0.3,0.8-0.2,0.5-0.5c-1-1.1-1.9-2.3-2.8-3.5c-0.3-0.4-0.8,0-0.6,0.4c0.9,1.6,1.8,3.3,2.7,4.9c0.2,0.4,0.8,0,0.6-0.4
					c-1-2.4-2-4.8-2.3-7.4c-0.2,0.1-0.4,0.1-0.7,0.2c0.7,1.7,1.3,3.5,1.8,5.3c0.2-0.1,0.4-0.2,0.6-0.3c-0.7-1.4-1.4-2.8-2.1-4.2
					c-0.2-0.4-0.7-0.1-0.6,0.3c0.4,1.7,0.8,3.4,0.9,5.2c0.2,0,0.4-0.1,0.7-0.1c-0.2-0.8-0.3-1.6-0.4-2.4
					C493.5,303.8,492.8,303.8,492.8,304.2L492.8,304.2z"/>
			</g>
		</g>
		<g>
			<g>
				<path class="st11" d="M491.9,295.8c1.3,2.7,2,5.5,3,8.3c1,2.7,2.2,5.3,3.6,7.8c0.2,0.4,0.8,0,0.6-0.4c-1.5-2.7-2.8-5.5-3.8-8.4
					c-0.9-2.6-1.6-5.2-2.8-7.6C492.3,295,491.7,295.4,491.9,295.8L491.9,295.8z"/>
			</g>
		</g>
		<g>
			<g>
				<path class="st11" d="M492.3,299c0.4,2.7,2.4,4.8,2.8,7.5c0.2-0.1,0.4-0.1,0.7-0.2c-1-2.6-1.9-5.2-2.8-7.8
					c-0.2,0.1-0.4,0.1-0.7,0.2c0.4,1.2,0.8,2.3,1.4,3.4c0.2,0.4,0.8,0,0.6-0.4c-0.5-1.1-1-2.2-1.3-3.3c-0.1-0.4-0.8-0.2-0.7,0.2
					c0.8,2.6,1.8,5.2,2.8,7.8c0.2,0.4,0.7,0.3,0.7-0.2c-0.4-2.7-2.3-4.8-2.8-7.5C492.9,298.3,492.2,298.5,492.3,299L492.3,299z"/>
			</g>
		</g>
		<g>
			<g>
				<path class="st11" d="M492,295.8c1.5,2.7,2,5.7,3.2,8.5c1.3,3,2.6,6,3.9,8.9c0.2,0.4,0.8,0,0.6-0.4c-1.4-3-2.7-5.9-3.9-8.9
					c-1.2-2.8-1.6-5.9-3.2-8.5C492.3,295.1,491.7,295.5,492,295.8L492,295.8z"/>
			</g>
		</g>
		<g>
			<g>
				<path class="st11" d="M492.3,296.1c1.9,5.8,4.1,11.4,6.6,17c0.2-0.1,0.4-0.2,0.6-0.4c-0.6-1.2-1.3-2.5-1.9-3.7
					c-0.2-0.4-0.8,0-0.6,0.4c0.5,1.1,1.1,2.1,1.8,3c0.3,0.4,0.9,0,0.6-0.4c-0.7-0.9-1.3-2-1.8-3c-0.2,0.1-0.4,0.2-0.6,0.4
					c0.6,1.2,1.3,2.5,1.9,3.7c0.2,0.4,0.8,0,0.6-0.4c-2.5-5.5-4.6-11.1-6.5-16.8C492.8,295.5,492.2,295.6,492.3,296.1L492.3,296.1z"
					/>
			</g>
		</g>
		<g>
			<g>
				<path class="st11" d="M497.7,309.7c0.1,0.5,0.4,1,0.7,1.5c0.3,0.4,0.8,0,0.6-0.4c-0.3-0.4-0.4-0.8-0.6-1.3
					C498.2,309.1,497.5,309.3,497.7,309.7L497.7,309.7z"/>
			</g>
		</g>
		<g>
			<g>
				<path class="st11" d="M496.5,307.8c0.5,0.9,0.9,1.7,1.4,2.6c0.2,0.4,0.8,0.1,0.6-0.3c-0.6-1.8-2.3-3.2-2.3-5.2
					c0-0.5-0.7-0.5-0.7,0c0,2.1,1.7,3.5,2.3,5.4c0.2-0.1,0.4-0.2,0.6-0.3c-0.5-0.9-0.9-1.7-1.4-2.6
					C496.9,307.1,496.3,307.5,496.5,307.8L496.5,307.8z"/>
			</g>
		</g>
		<g>
			<g>
				<path class="st11" d="M495.7,305.7C495.6,305.7,495.6,305.7,495.7,305.7C495.6,305.7,495.6,305.7,495.7,305.7
					c0,0.1,0,0.1,0.1,0.1c-0.1-0.1-0.1-0.1,0,0c-0.4-0.6-1.2-0.9-1.9-0.5c-1.8,1.2,0.1,3.4,1,4.5c0.4,0.6,1.5,0.5,2,0
					c0.6-0.6,0.5-1.4,0-2c-0.1-0.1-0.4-0.5-0.5-0.8c-0.1-0.1-0.2-0.3-0.3-0.4c0-0.1-0.1-0.2-0.2-0.3c-0.1-0.2-0.1-0.2,0,0
					c0,0.3,0,0.5,0,0.8c0,0,0,0,0-0.1c-0.2,0.3-0.4,0.6-0.6,0.9c0,0,0,0,0.1,0c-0.6-0.2-1.3-0.3-1.9-0.5c0.5,0.8,1.4,1.4,2.3,1.3
					c0.7,0,1.4-0.6,1.4-1.5C497.1,306.4,496.5,305.7,495.7,305.7L495.7,305.7z"/>
			</g>
		</g>
		<g>
			<g>
				<path class="st11" d="M496.8,307.7c-0.8-1.4-2.9-0.7-2.8,0.9c0,0.6,0.3,1,0.6,1.4c0.1,0.1,0.2,0.3,0.3,0.4
					c0,0.1,0.1,0.1,0.1,0.2c0-0.1,0-0.1,0-0.2c0,0.7,0.6,1.5,1.4,1.5c0.7,0,1.4-0.6,1.4-1.5c0-0.6-0.2-1.1-0.6-1.5
					c-0.2-0.3-0.5-0.6-0.7-1c0.1,0.2,0.1,0.5,0.2,0.7c0,0,0-0.1,0-0.1c-0.1,0.2-0.1,0.5-0.2,0.7c0,0,0,0,0,0
					c-0.2,0.2-0.3,0.3-0.5,0.5c-0.1,0-0.1,0.1-0.2,0.1c-0.3,0-0.5,0-0.7,0c0,0,0,0,0,0c-0.3-0.2-0.6-0.4-0.8-0.7c0,0,0,0,0,0
					c0.4,0.7,1.3,0.9,1.9,0.5C496.9,309.3,497.2,308.4,496.8,307.7L496.8,307.7z"/>
			</g>
		</g>
		<g>
			<g>
				<path class="st11" d="M493.9,303.3C493.9,303.3,493.9,303.3,493.9,303.3c0.1,0,0.2,0,0.3,0C494.1,303.3,494,303.3,493.9,303.3
					c0.2,0,0.3,0,0.4,0c-0.1,0-0.1,0-0.2,0c0.1,0,0.2,0.1,0.3,0.1c0,0-0.1,0-0.2-0.1c-0.4-0.2-0.8-0.2-1.2-0.1
					c-0.4,0.2-0.7,0.5-0.8,0.9c-0.1,0.4-0.1,0.7,0,1.1c0.1,0.4,0.3,0.6,0.5,0.9c0.2,0.3,0.7,0.4,1,0.4c0.4,0,0.7-0.1,1-0.4
					c0.2-0.3,0.4-0.6,0.4-1c0-0.1,0-0.3,0-0.4c-0.1-0.2-0.2-0.5-0.4-0.6l0,0c0.1,0.1,0.1,0.2,0.2,0.3c0,0-0.1-0.1-0.1-0.1
					c0,0.1,0.1,0.2,0.1,0.3c0,0,0-0.1,0-0.2c0,0.1,0,0.3,0,0.4c0-0.1,0-0.1,0-0.2c0,0.1,0,0.3,0,0.4c0,0,0,0,0,0
					c-0.7,0.3-1.4,0.6-2,0.9c0.1,0.1,0.2,0.1,0.3,0.2s0.2,0.1,0.4,0.1c0.4,0.1,0.7,0.1,1.1,0c0.3-0.1,0.7-0.4,0.8-0.7
					c0.2-0.3,0.3-0.8,0.1-1.1c-0.1-0.3-0.3-0.7-0.6-0.9C494.6,303.2,494.3,303.2,493.9,303.3L493.9,303.3z"/>
			</g>
		</g>
		<g>
			<g>
				<path class="st11" d="M492.8,300.1c-0.1,0-0.3,0-0.4,0c-0.4,0-0.7,0.2-1,0.4c-0.2,0.2-0.4,0.7-0.4,1c0,0.4,0.1,0.7,0.4,1
					c0.3,0.3,0.6,0.4,1,0.4c0.1,0,0.3,0,0.4,0c0.4,0,0.7-0.2,1-0.4c0.2-0.2,0.4-0.7,0.4-1c0-0.4-0.1-0.7-0.4-1
					C493.5,300.3,493.1,300.1,492.8,300.1L492.8,300.1z"/>
			</g>
		</g>
		<g>
			<g>
				<path class="st11" d="M506.2,327C506.2,327,506.2,327,506.2,327c0.2-0.1,0.4-0.2,0.6-0.3c1.2-0.4,1.5,1.4,1.3,0.6
					c0-0.1,0-0.1,0-0.2c-0.1-0.2-0.2-0.5-0.3-0.7c-0.3-0.4-0.6-0.8-1-1c-0.6-0.4-1.6-0.2-1.9,0.5c-0.4,0.7-0.2,1.5,0.5,2
					c0.2,0.1-0.3-0.2,0,0c0.1,0.1,0.1,0.1-0.1-0.1c0,0,0,0.1,0.1,0.1c0.1,0.1,0,0.1,0-0.1c0,0,0,0.1,0,0.2c0,0.1,0,0.2,0.1,0.3
					c0.2,0.6,0.6,1,1.1,1.2c0.6,0.2,1.1,0,1.6-0.4c0.6-0.5,0.5-1.5,0-2C507.6,326.5,506.8,326.5,506.2,327L506.2,327z"/>
			</g>
		</g>
		<g>
			<g>
				<path class="st11" d="M511.2,333.6c1.8,0,1.8-2.9,0-2.9C509.5,330.7,509.5,333.6,511.2,333.6L511.2,333.6z"/>
			</g>
		</g>
		<g>
			<g>
				<path class="st11" d="M510.9,333.6c1.8,0,1.8-2.9,0-2.9C509.1,330.7,509.1,333.6,510.9,333.6L510.9,333.6z"/>
			</g>
		</g>
		<g>
			<g>
				<path class="st11" d="M511.4,334c1.8,0,1.8-2.9,0-2.9S509.6,334,511.4,334L511.4,334z"/>
			</g>
		</g>
		<g>
			<g>
				<path class="st11" d="M516.8,332.9C516.8,332.9,516.8,333,516.8,332.9c0.1-0.1,0.2-0.3,0.3-0.5c0,0,0.1-0.1,0.1-0.1
					c0.2-0.1,0.5-0.1,0.7-0.2c0.1,0,0.1,0,0.2,0c0.2,0.8,0.4,1.6,0.6,2.4c-0.3,0.2,0,0,0,0c0.3-0.2-0.3,0.1,0,0
					c0.2-0.1,0.4-0.1,0.6-0.2c0.7-0.3,1.1-0.6,1.5-1.2c0.4-0.6,0.1-1.6-0.5-2c-0.7-0.4-1.4-0.1-1.9,0.5c0.1-0.1,0.1-0.2,0.1-0.1
					c-0.1,0.1,0,0,0.1-0.1c0,0-0.2,0.1-0.2,0.1c-0.1,0.1,0.3-0.1,0,0c-0.1,0-0.2,0.1-0.3,0.1c-0.5,0.2-1,0.4-1.4,0.8
					c-0.4,0.3-0.5,0.9-0.4,1.4c0.1,0.5,0.5,0.8,1,1c0.9,0.4,1.8-0.3,2.1-1.2c0.2-0.7-0.3-1.6-1-1.8
					C517.7,331.7,517,332.2,516.8,332.9L516.8,332.9z"/>
			</g>
		</g>
	</g>
	<g id="umbrella_1_">
		<path class="st12" d="M522.7,255.2"/>
		<g id="XMLID_1_">
			<g>
				<path class="st13" d="M534.2,272.7c4.3,0.1-20,0.9-22.9,19.8c0.1,0.2-0.1,0.2-0.5,0.2c-15.6-35.5-34.8-32.1-34.8-32.1l0,0
					c5.6-2.6,12.5-4.5,20.8-5.3C522.6,252.7,534.2,272.7,534.2,272.7z"/>
				<path class="st14" d="M510.8,292.7c-3.4-0.3-22.3-6-31,17c0,0-0.2-0.1-0.7-0.1c-4.2-2.9-11.8-39.4-3.1-49
					C476,260.6,495.2,257.1,510.8,292.7z"/>
				<path class="st15" d="M476,260.5L476,260.5c-8.8,9.7-1.1,46.1,3.1,49c-3.1-0.6-16-2-25,10.1C452,320.6,441.7,276.5,476,260.5z"
					/>
			</g>
			<g>
				<path class="st3" d="M476,260.5c5.6-2.6,12.5-4.5,20.8-5.3c25.9-2.5,37.4,17.4,37.4,17.4c4.3,0.1-20,0.9-22.9,19.8
					c0.1,0.2-0.1,0.2-0.5,0.2c-3.4-0.3-22.3-6-31,17c0,0-0.2-0.1-0.7-0.1c-3.1-0.6-16-2-25,10.1C452,320.6,441.7,276.5,476,260.5z"
					/>
				<path class="st3" d="M479.7,309.7c-0.2,0.1-0.4,0-0.7-0.1c-4.2-2.9-11.8-39.4-3.1-49c0,0,19.2-3.4,34.8,32.1c0,0,0,0,0,0"/>
			</g>
		</g>
	</g>
	<g id="handl_1_">
		<path class="st3" d="M523.7,324.7c0,4.1-1.5,9.8-6.4,10.5c-1.9,0.2-3.5,0-5.1-0.7c-3.7-1.7-6.1-5.1-8.4-8.7
			c-6.5-9.9-11.2-18.7-14.6-29.6"/>
		<path class="st3" d="M494.5,293c4.3,13.2,9.7,26.2,19.3,36.4c-0.6-0.5,4,3.3,4.8-4.7"/>
		<path class="st3" d="M518.4,325.3c0-1.2,3.1-4.7,5.4,0"/>
	</g>
	<g id="Layer_7_1_">
	</g>
	<g id="handle_fill_x3F__x3F__x3F__2_">
		<g>
			<g>
				<path class="st11" d="M607.1,296.4c-0.3-0.8-0.6-1.6-0.8-2.4c-0.9,0.3-1.8,0.5-2.7,0.8c0.3,0.8,0.6,1.5,0.9,2.3
					c0.3,0.7,1.3,0.9,1.9,0.5c0.7-0.4,0.8-1.3,0.5-2c-0.2-0.6-0.4-1-0.7-1.6c-0.3-0.7-0.9-1.2-1.7-1c-0.7,0.2-1.2,1-1,1.8
					c0.3,0.8,0.5,1.6,0.8,2.4c0.3,0.7,1,1.2,1.7,1C606.8,298,607.4,297.2,607.1,296.4L607.1,296.4z"/>
			</g>
		</g>
		<g>
			<g>
				<path class="st11" d="M604.7,298.5c0.1,0.2,0.2,0.5,0.4,0.7c0.1,0.3,0.5,0.6,0.8,0.7c0.3,0.1,0.8,0,1.1-0.1
					c0.3-0.2,0.6-0.5,0.7-0.9c0.1-0.4,0-0.7-0.1-1.1c-0.1-0.2-0.2-0.5-0.4-0.7c-0.1-0.3-0.5-0.6-0.8-0.7c-0.3-0.1-0.8,0-1.1,0.1
					c-0.3,0.2-0.6,0.5-0.7,0.9C604.4,297.8,604.5,298.1,604.7,298.5L604.7,298.5z"/>
			</g>
		</g>
		<g>
			<g>
				<path class="st11" d="M637.7,326.2c-0.1-0.6-0.3-1.3-0.4-1.9c-0.1-0.7-1.1-1.2-1.7-1c-0.8,0.3-1.1,1-1,1.8
					c0.1,0.6,0.3,1.3,0.4,1.9c0.2,0.7,1,1.3,1.7,1C637.5,327.8,637.9,327,637.7,326.2L637.7,326.2z"/>
			</g>
		</g>
		<g>
			<g>
				<path class="st11" d="M607.8,307.7c2.2,5.4,4.6,10.6,7.9,15.4c1.6,2.3,3.3,4.5,5.2,6.6c2,2.1,4.2,4.3,6.8,5.7
					c1.6,0.9,3-1.6,1.4-2.5c-2.4-1.3-4.4-3.4-6.3-5.4s-3.6-4.2-5.1-6.5c-3-4.6-5.3-9.6-7.4-14.8c-0.3-0.7-1.3-0.9-1.9-0.5
					C607.6,306.1,607.6,307,607.8,307.7L607.8,307.7z"/>
			</g>
		</g>
		<g>
			<g>
				<path class="st11" d="M603.2,294.5c-0.2,2.8,0.9,5.2,2.2,7.5c0.9,1.6,3.3,0.1,2.4-1.5c-1.1-1.9-2-3.8-1.8-6.1
					C606.1,292.7,603.3,292.7,603.2,294.5L603.2,294.5z"/>
			</g>
		</g>
		<g>
			<g>
				<path class="st11" d="M631.2,332.5c-1.2-0.2-2.4-0.6-3.5-1.1c-1.6-0.7-3,1.5-1.4,2.5c2.6,1.5,5.9,1.4,8.3-0.6
					c2.4-2.1,2.5-5.2,3.1-8.1c0.4-1.8-2.3-2.6-2.7-0.8c-0.4,2-0.4,4.5-1.6,6.1c-1.4,1.7-3.8,2-5.6,0.9c-0.5,0.8-0.9,1.7-1.4,2.5
					c1.4,0.6,2.7,1.1,4.2,1.4C632.2,335.6,632.9,332.9,631.2,332.5L631.2,332.5z"/>
			</g>
		</g>
		<g>
			<g>
				<path class="st11" d="M610.5,312.2c2.3,5,4.9,9.9,8.2,14.3c1.6,2.2,3.4,4.3,5.4,6.1c1.9,1.8,3.9,3.1,6.6,2.8
					c1.8-0.2,1.8-3.1,0-2.9c-1,0.1-2.1,0.1-3-0.5c-1-0.6-1.8-1.6-2.6-2.4c-1.8-1.8-3.4-3.7-4.9-5.8c-2.9-4.1-5.2-8.5-7.3-13.1
					C612.1,309,609.7,310.5,610.5,312.2L610.5,312.2z"/>
			</g>
		</g>
		<g>
			<g>
				<path class="st11" d="M622.7,327.7c-0.3,0-0.3,0-0.6,0c-0.7-0.2-1.4,0.2-1.6,0.8c-0.2,0.6-0.1,1.5,0.6,1.8
					c0.1,0,0.4,0.3,0.2,0.1c0.1,0.1,0.2,0.2,0.3,0.3c0,0.1,0.1,0.1,0.2,0.2c-0.1-0.1-0.1-0.1,0,0c0.1,0.1,0.2,0.2,0.3,0.4
					c0.5,0.7,1.1,1.2,1.9,1.6c0.7,0.3,1.5-0.3,1.7-1c0.2-0.8-0.3-1.5-1-1.8c0.1,0,0.1,0,0,0c0.1,0.1,0.1,0.1,0,0
					c-0.1-0.1-0.2-0.2-0.3-0.3c-0.3-0.3,0.1,0.2-0.1-0.1c-0.1-0.1-0.2-0.2-0.3-0.4c-0.4-0.6-0.9-1.2-1.6-1.5
					c-0.4,0.9-0.7,1.8-1.1,2.6c0.4,0.1,0.9,0.2,1.3,0.1c0.7-0.1,1.4-0.6,1.4-1.5C624.1,328.4,623.4,327.6,622.7,327.7L622.7,327.7z"
					/>
			</g>
		</g>
		<g>
			<g>
				<path class="st11" d="M624.8,332.5c0,0.7,0.4,1.4,0.9,1.8c0.2,0.1,0.4,0.2,0.6,0.3c0.3,0.1,0.7,0.1,1.1,0
					c0.3-0.1,0.7-0.3,0.8-0.7c0.1-0.3,0.2-0.6,0.2-0.9c-0.1-0.7-0.7-1.3-1.4-1.3c-0.1,0-0.3,0-0.4,0c-0.4,0-0.7,0.1-1,0.4
					c-0.2,0.2-0.4,0.7-0.4,1c0,0.7,0.6,1.5,1.4,1.5c0.1,0,0.3,0,0.4,0c-0.1-0.9-0.3-1.9-0.4-2.8c0,0-0.1,0-0.2,0c0.1,0,0.3,0,0.4,0
					c0,0-0.1,0-0.1,0c0.1,0,0.3,0,0.4,0c0,0-0.1,0-0.2,0c0.1,0,0.2,0.1,0.3,0.1c-0.1,0-0.1-0.1-0.2-0.1c0.1,0.1,0.2,0.1,0.3,0.2
					c0,0-0.1-0.1-0.1-0.1c0.1,0.1,0.1,0.2,0.2,0.3c0,0-0.1-0.1-0.1-0.1c0,0.1,0.1,0.2,0.1,0.3c0,0,0-0.1,0-0.1c0,0.1,0,0.3,0,0.4
					c0,0,0-0.1,0-0.1c0-0.7-0.7-1.5-1.4-1.5C625.4,331.1,624.8,331.7,624.8,332.5L624.8,332.5z"/>
			</g>
		</g>
		<g>
			<g>
				<path class="st11" d="M623.9,332.3c1,1,2.3,1.8,3.6,2.2c1.7,0.5,2.5-2.3,0.7-2.8c-0.9-0.2-1.7-0.7-2.4-1.4
					C624.6,329,622.7,331,623.9,332.3L623.9,332.3z"/>
			</g>
		</g>
		<g>
			<g>
				<path class="st11" d="M606.8,302.1c-1.1,0.3,0.2,2.4,0.5,2.9c0.2-0.1,0.4-0.2,0.6-0.4c-0.6-1-1.2-1.9-1.8-2.9
					c-0.2-0.4-0.8,0-0.6,0.4c0.4,0.8,0.9,1.7,1.3,2.6c0.2,0.4,0.8,0,0.6-0.4c-0.4-0.8-0.8-1.5-1.4-2.1c-0.3-0.3-0.7,0.1-0.5,0.4
					c0.6,1.3,1.2,2.6,1.8,3.8c0.2,0.4,0.7,0.1,0.6-0.3c-0.3-1.1-0.6-2.1-1.1-3.1c-0.2-0.4-0.8,0-0.6,0.4c0.6,1.4,1.3,2.8,2.1,4.1
					c0.2,0.4,0.8,0,0.6-0.4c-0.8-1.3-1.4-2.7-2.1-4.1c-0.2,0.1-0.4,0.2-0.6,0.4c0.4,1,0.7,1.9,1,3c0.2-0.1,0.4-0.2,0.6-0.3
					c-0.6-1.3-1.2-2.6-1.8-3.8c-0.2,0.1-0.4,0.3-0.5,0.4c0.6,0.6,1,1.2,1.3,2c0.2-0.1,0.4-0.2,0.6-0.4c-0.4-0.8-0.9-1.7-1.3-2.6
					c-0.2,0.1-0.4,0.2-0.6,0.4c0.6,1,1.2,1.9,1.8,2.9c0.3,0.4,0.8,0,0.6-0.4c-0.1-0.2-0.7-1.9-0.9-1.9
					C607.5,302.6,607.3,302,606.8,302.1L606.8,302.1z"/>
			</g>
		</g>
		<g>
			<g>
				<path class="st11" d="M606.8,304.2c0,0.9,0.1,1.7,0.4,2.6c0.1,0.4,0.7,0.3,0.7-0.1c-0.2-1.8-0.6-3.6-1-5.3
					c-0.2,0.1-0.4,0.2-0.6,0.3c0.7,1.4,1.4,2.8,2.1,4.2c0.2,0.4,0.7,0.1,0.6-0.3c-0.5-1.9-1.1-3.7-1.8-5.4c-0.1-0.3-0.7-0.2-0.7,0.2
					c0.3,2.8,1.4,5.3,2.4,7.8c0.2-0.1,0.4-0.2,0.6-0.4c-0.9-1.6-1.8-3.3-2.7-4.9c-0.2,0.1-0.4,0.2-0.6,0.4c0.9,1.3,1.8,2.5,2.9,3.7
					c0.3,0.3,0.8-0.2,0.5-0.5c-1-1.1-1.9-2.3-2.8-3.5c-0.3-0.4-0.8,0-0.6,0.4c0.9,1.6,1.8,3.3,2.7,4.9c0.2,0.4,0.8,0,0.6-0.4
					c-1-2.4-2-4.8-2.3-7.4c-0.2,0.1-0.4,0.1-0.7,0.2c0.7,1.7,1.3,3.5,1.8,5.3c0.2-0.1,0.4-0.2,0.6-0.3c-0.7-1.4-1.4-2.8-2.1-4.2
					c-0.2-0.4-0.7-0.1-0.6,0.3c0.4,1.7,0.8,3.4,0.9,5.2c0.2,0,0.4-0.1,0.7-0.1c-0.2-0.8-0.3-1.6-0.4-2.4
					C607.5,303.8,606.8,303.8,606.8,304.2L606.8,304.2z"/>
			</g>
		</g>
		<g>
			<g>
				<path class="st11" d="M605.9,295.8c1.3,2.7,2,5.5,3,8.3c1,2.7,2.2,5.3,3.6,7.8c0.2,0.4,0.8,0,0.6-0.4c-1.5-2.7-2.8-5.5-3.8-8.4
					c-0.9-2.6-1.6-5.2-2.8-7.6C606.3,295,605.7,295.4,605.9,295.8L605.9,295.8z"/>
			</g>
		</g>
		<g>
			<g>
				<path class="st11" d="M606.3,299c0.4,2.7,2.4,4.8,2.8,7.5c0.2-0.1,0.4-0.1,0.7-0.2c-1-2.6-1.9-5.2-2.8-7.8
					c-0.2,0.1-0.4,0.1-0.7,0.2c0.4,1.2,0.8,2.3,1.4,3.4c0.2,0.4,0.8,0,0.6-0.4c-0.5-1.1-1-2.2-1.3-3.3c-0.1-0.4-0.8-0.2-0.7,0.2
					c0.8,2.6,1.8,5.2,2.8,7.8c0.2,0.4,0.7,0.3,0.7-0.2c-0.4-2.7-2.3-4.8-2.8-7.5C606.9,298.3,606.2,298.5,606.3,299L606.3,299z"/>
			</g>
		</g>
		<g>
			<g>
				<path class="st11" d="M606,295.8c1.5,2.7,2,5.7,3.2,8.5c1.3,3,2.6,6,3.9,8.9c0.2,0.4,0.8,0,0.6-0.4c-1.4-3-2.7-5.9-3.9-8.9
					c-1.2-2.8-1.6-5.9-3.2-8.5C606.3,295.1,605.7,295.5,606,295.8L606,295.8z"/>
			</g>
		</g>
		<g>
			<g>
				<path class="st11" d="M606.3,296.1c1.9,5.8,4.1,11.4,6.6,17c0.2-0.1,0.4-0.2,0.6-0.4c-0.6-1.2-1.3-2.5-1.9-3.7
					c-0.2-0.4-0.8,0-0.6,0.4c0.5,1.1,1.1,2.1,1.8,3c0.3,0.4,0.9,0,0.6-0.4c-0.7-0.9-1.3-2-1.8-3c-0.2,0.1-0.4,0.2-0.6,0.4
					c0.6,1.2,1.3,2.5,1.9,3.7c0.2,0.4,0.8,0,0.6-0.4c-2.5-5.5-4.6-11.1-6.5-16.8C606.8,295.5,606.2,295.6,606.3,296.1L606.3,296.1z"
					/>
			</g>
		</g>
		<g>
			<g>
				<path class="st11" d="M611.7,309.7c0.1,0.5,0.4,1,0.7,1.5c0.3,0.4,0.8,0,0.6-0.4c-0.3-0.4-0.4-0.8-0.6-1.3
					C612.2,309.1,611.5,309.3,611.7,309.7L611.7,309.7z"/>
			</g>
		</g>
		<g>
			<g>
				<path class="st11" d="M610.5,307.8c0.5,0.9,0.9,1.7,1.4,2.6c0.2,0.4,0.8,0.1,0.6-0.3c-0.6-1.8-2.3-3.2-2.3-5.2
					c0-0.5-0.7-0.5-0.7,0c0,2.1,1.7,3.5,2.3,5.4c0.2-0.1,0.4-0.2,0.6-0.3c-0.5-0.9-0.9-1.7-1.4-2.6
					C610.9,307.1,610.3,307.5,610.5,307.8L610.5,307.8z"/>
			</g>
		</g>
		<g>
			<g>
				<path class="st11" d="M609.7,305.7C609.6,305.7,609.6,305.7,609.7,305.7C609.6,305.7,609.6,305.7,609.7,305.7
					c0,0.1,0,0.1,0.1,0.1c-0.1-0.1-0.1-0.1,0,0c-0.4-0.6-1.2-0.9-1.9-0.5c-1.8,1.2,0.1,3.4,1,4.5c0.4,0.6,1.5,0.5,2,0
					c0.6-0.6,0.5-1.4,0-2c-0.1-0.1-0.4-0.5-0.5-0.8c-0.1-0.1-0.2-0.3-0.3-0.4c0-0.1-0.1-0.2-0.2-0.3c-0.1-0.2-0.1-0.2,0,0
					c0,0.3,0,0.5,0,0.8c0,0,0,0,0-0.1c-0.2,0.3-0.4,0.6-0.6,0.9c0,0,0,0,0.1,0c-0.6-0.2-1.3-0.3-1.9-0.5c0.5,0.8,1.4,1.4,2.3,1.3
					c0.7,0,1.4-0.6,1.4-1.5C611.1,306.4,610.5,305.7,609.7,305.7L609.7,305.7z"/>
			</g>
		</g>
		<g>
			<g>
				<path class="st11" d="M610.8,307.7c-0.8-1.4-2.9-0.7-2.8,0.9c0,0.6,0.3,1,0.6,1.4c0.1,0.1,0.2,0.3,0.3,0.4
					c0,0.1,0.1,0.1,0.1,0.2c0-0.1,0-0.1,0-0.2c0,0.7,0.6,1.5,1.4,1.5c0.7,0,1.4-0.6,1.4-1.5c0-0.6-0.2-1.1-0.6-1.5
					c-0.2-0.3-0.5-0.6-0.7-1c0.1,0.2,0.1,0.5,0.2,0.7c0,0,0-0.1,0-0.1c-0.1,0.2-0.1,0.5-0.2,0.7c0,0,0,0,0,0
					c-0.2,0.2-0.3,0.3-0.5,0.5c-0.1,0-0.1,0.1-0.2,0.1c-0.3,0-0.5,0-0.7,0c0,0,0,0,0,0c-0.3-0.2-0.6-0.4-0.8-0.7c0,0,0,0,0,0
					c0.4,0.7,1.3,0.9,1.9,0.5C610.9,309.3,611.2,308.4,610.8,307.7L610.8,307.7z"/>
			</g>
		</g>
		<g>
			<g>
				<path class="st11" d="M607.9,303.3C607.9,303.3,607.9,303.3,607.9,303.3c0.1,0,0.2,0,0.3,0C608.1,303.3,608,303.3,607.9,303.3
					c0.2,0,0.3,0,0.4,0c-0.1,0-0.1,0-0.2,0c0.1,0,0.2,0.1,0.3,0.1c0,0-0.1,0-0.2-0.1c-0.4-0.2-0.8-0.2-1.2-0.1
					c-0.4,0.2-0.7,0.5-0.8,0.9c-0.1,0.4-0.1,0.7,0,1.1s0.3,0.6,0.5,0.9c0.2,0.3,0.7,0.4,1,0.4c0.4,0,0.7-0.1,1-0.4s0.4-0.6,0.4-1
					c0-0.1,0-0.3,0-0.4c-0.1-0.2-0.2-0.5-0.4-0.6l0,0c0.1,0.1,0.1,0.2,0.2,0.3c0,0-0.1-0.1-0.1-0.1c0,0.1,0.1,0.2,0.1,0.3
					c0,0,0-0.1,0-0.2c0,0.1,0,0.3,0,0.4c0-0.1,0-0.1,0-0.2c0,0.1,0,0.3,0,0.4c0,0,0,0,0,0c-0.7,0.3-1.4,0.6-2,0.9
					c0.1,0.1,0.2,0.1,0.3,0.2c0.1,0,0.2,0.1,0.4,0.1c0.4,0.1,0.7,0.1,1.1,0c0.3-0.1,0.7-0.4,0.8-0.7c0.2-0.3,0.3-0.8,0.1-1.1
					c-0.1-0.3-0.3-0.7-0.6-0.9C608.6,303.2,608.3,303.2,607.9,303.3L607.9,303.3z"/>
			</g>
		</g>
		<g>
			<g>
				<path class="st11" d="M606.8,300.1c-0.1,0-0.3,0-0.4,0c-0.4,0-0.7,0.2-1,0.4c-0.2,0.2-0.4,0.7-0.4,1s0.1,0.7,0.4,1
					c0.3,0.3,0.6,0.4,1,0.4c0.1,0,0.3,0,0.4,0c0.4,0,0.7-0.2,1-0.4c0.2-0.2,0.4-0.7,0.4-1s-0.1-0.7-0.4-1
					C607.5,300.3,607.1,300.1,606.8,300.1L606.8,300.1z"/>
			</g>
		</g>
		<g>
			<g>
				<path class="st11" d="M620.2,327C620.2,327,620.2,327,620.2,327c0.2-0.1,0.4-0.2,0.6-0.3c1.2-0.4,1.5,1.4,1.3,0.6
					c0-0.1,0-0.1,0-0.2c-0.1-0.2-0.2-0.5-0.3-0.7c-0.3-0.4-0.6-0.8-1-1c-0.6-0.4-1.6-0.2-1.9,0.5c-0.4,0.7-0.2,1.5,0.5,2
					c0.2,0.1-0.3-0.2,0,0c0.1,0.1,0.1,0.1-0.1-0.1c0,0,0,0.1,0.1,0.1c0.1,0.1,0,0.1,0-0.1c0,0,0,0.1,0,0.2c0,0.1,0,0.2,0.1,0.3
					c0.2,0.6,0.6,1,1.1,1.2c0.6,0.2,1.1,0,1.6-0.4c0.6-0.5,0.5-1.5,0-2C621.6,326.5,620.8,326.5,620.2,327L620.2,327z"/>
			</g>
		</g>
		<g>
			<g>
				<path class="st11" d="M625.2,333.6c1.8,0,1.8-2.9,0-2.9C623.5,330.7,623.5,333.6,625.2,333.6L625.2,333.6z"/>
			</g>
		</g>
		<g>
			<g>
				<path class="st11" d="M624.9,333.6c1.8,0,1.8-2.9,0-2.9S623.1,333.6,624.9,333.6L624.9,333.6z"/>
			</g>
		</g>
		<g>
			<g>
				<path class="st11" d="M625.4,334c1.8,0,1.8-2.9,0-2.9C623.6,331.2,623.6,334,625.4,334L625.4,334z"/>
			</g>
		</g>
		<g>
			<g>
				<path class="st11" d="M630.8,332.9C630.8,332.9,630.8,333,630.8,332.9c0.1-0.1,0.2-0.3,0.3-0.5c0,0,0.1-0.1,0.1-0.1
					c0.2-0.1,0.5-0.1,0.7-0.2c0.1,0,0.1,0,0.2,0c0.2,0.8,0.4,1.6,0.6,2.4c-0.3,0.2,0,0,0,0c0.3-0.2-0.3,0.1,0,0
					c0.2-0.1,0.4-0.1,0.6-0.2c0.7-0.3,1.1-0.6,1.5-1.2c0.4-0.6,0.1-1.6-0.5-2c-0.7-0.4-1.4-0.1-1.9,0.5c0.1-0.1,0.1-0.2,0.1-0.1
					c-0.1,0.1,0,0,0.1-0.1c0,0-0.2,0.1-0.2,0.1c-0.1,0.1,0.3-0.1,0,0c-0.1,0-0.2,0.1-0.3,0.1c-0.5,0.2-1,0.4-1.4,0.8
					c-0.4,0.3-0.5,0.9-0.4,1.4c0.1,0.5,0.5,0.8,1,1c0.9,0.4,1.8-0.3,2.1-1.2c0.2-0.7-0.3-1.6-1-1.8
					C631.7,331.7,631,332.2,630.8,332.9L630.8,332.9z"/>
			</g>
		</g>
	</g>
	<g id="umbrella_2_">
		<path class="st12" d="M636.7,255.2"/>
		<g id="XMLID_2_">
			<g>
				<path class="st13" d="M648.2,272.7c4.3,0.1-20,0.9-22.9,19.8c0.1,0.2-0.1,0.2-0.5,0.2c-15.6-35.5-34.8-32.1-34.8-32.1l0,0
					c5.6-2.6,12.5-4.5,20.8-5.3C636.6,252.7,648.2,272.7,648.2,272.7z"/>
				<path class="st14" d="M624.8,292.7c-3.4-0.3-22.3-6-31,17c0,0-0.2-0.1-0.7-0.1c-4.2-2.9-11.8-39.4-3.1-49
					C590,260.6,609.2,257.1,624.8,292.7z"/>
				<path class="st15" d="M590,260.5L590,260.5c-8.8,9.7-1.1,46.1,3.1,49c-3.1-0.6-16-2-25,10.1C566,320.6,555.7,276.5,590,260.5z"
					/>
			</g>
			<g>
				<path class="st3" d="M590,260.5c5.6-2.6,12.5-4.5,20.8-5.3c25.9-2.5,37.4,17.4,37.4,17.4c4.3,0.1-20,0.9-22.9,19.8
					c0.1,0.2-0.1,0.2-0.5,0.2c-3.4-0.3-22.3-6-31,17c0,0-0.2-0.1-0.7-0.1c-3.1-0.6-16-2-25,10.1C566,320.6,555.7,276.5,590,260.5z"
					/>
				<path class="st3" d="M593.7,309.7c-0.2,0.1-0.4,0-0.7-0.1c-4.2-2.9-11.8-39.4-3.1-49c0,0,19.2-3.4,34.8,32.1c0,0,0,0,0,0"/>
			</g>
		</g>
	</g>
	<g id="handl_2_">
		<path class="st3" d="M637.7,324.7c0,4.1-1.5,9.8-6.4,10.5c-1.9,0.2-3.5,0-5.1-0.7c-3.7-1.7-6.1-5.1-8.4-8.7
			c-6.5-9.9-11.2-18.7-14.6-29.6"/>
		<path class="st3" d="M608.5,293c4.3,13.2,9.7,26.2,19.3,36.4c-0.6-0.5,4,3.3,4.8-4.7"/>
		<path class="st3" d="M632.4,325.3c0-1.2,3.1-4.7,5.4,0"/>
	</g>
	<g id="Layer_7_2_">
	</g>
	<g id="XMLID_46_">
		<g>
			<polygon class="st16" points="422.6,314.2 407.5,312.5 411.5,304.5 			"/>
			<polygon class="st17" points="424.2,278.2 413.2,287.9 409.2,280 			"/>
			<polygon class="st18" points="398.7,320.8 401.2,334.6 390.3,324.8 			"/>
			<polygon class="st17" points="401,256 399.1,269.9 390.6,266.2 			"/>
			<polygon class="st18" points="370,323.7 365.7,327.7 359.3,333.7 361.6,319.8 			"/>
			<polygon class="st17" points="371.2,266.4 362.9,270.5 360.4,256.6 			"/>
			<polygon class="st16" points="349.3,302.8 353.6,310.7 338.6,312.7 			"/>
			<polygon class="st17" points="353.1,280.7 349.3,288.7 338,279.4 			"/>
		</g>
		<g>
			<polygon class="st19" points="360.4,256.6 362.9,270.5 371.2,266.4 			"/>
			<polygon class="st19" points="401.2,334.6 398.7,320.8 390.3,324.8 			"/>
			<polygon class="st19" points="401,256 390.6,266.2 399.1,269.9 			"/>
			<polygon class="st19" points="424.2,278.2 409.2,280 413.2,287.9 			"/>
			<polygon class="st19" points="338,279.4 349.3,288.7 353.1,280.7 			"/>
			<polygon class="st19" points="359.3,333.7 365.7,327.7 370,323.7 361.6,319.8 			"/>
			<polygon class="st19" points="338.6,312.7 353.6,310.7 349.3,302.8 			"/>
			<polygon class="st19" points="422.6,314.2 411.5,304.5 407.5,312.5 			"/>
		</g>
	</g>
	<g id="XMLID_4_">
		<g>
			<path class="st17" d="M386.1,269.5c14.4,2.4,24.3,14.6,23.1,27.8l-0.1,0h-55.8c-0.2-2.2-0.1-4.5,0.3-6.8
				C356.2,276.4,370.8,267,386.1,269.5z"/>
			<path class="st16" d="M409,297.3l0.1,0c-0.1,0.8-0.2,1.5-0.3,2.3c-1.1,6-4.4,11.1-9,14.8l0,0l-37.5-0.5l-0.2,0.2
				c-5.1-4.3-8.3-10.3-8.9-16.9H409z"/>
			<path class="st18" d="M399.8,314.5L399.8,314.5c-6.2,5.1-14.8,7.7-23.6,6.2c-5.5-0.9-10.3-3.2-14.1-6.5l0.2-0.2L399.8,314.5z"/>
		</g>
		<g>
			<path class="st19" d="M409.1,297.4c-0.1,0.8-0.2,1.5-0.3,2.3c-1.1,6-4.4,11.1-9,14.8c-6.2,5.1-14.8,7.6-23.6,6.2
				c-5.5-0.9-10.3-3.2-14.1-6.5c-5.1-4.3-8.3-10.3-8.9-16.9c-0.2-2.2-0.1-4.5,0.3-6.8c2.7-14.1,17.3-23.6,32.6-21
				C400.5,271.9,410.4,284.1,409.1,297.4z"/>
		</g>
	</g>
</g>
<g id="Layer_5">
</g>
<g id="Layer_6">
	<g>
		<g>
			<path class="st1" d="M201.5,184.6c4.1,6.8,8.2,13.7,12.3,20.5c-0.7-1.2,0.6-3.7,0-5c-3-6.8-6.4-13.2-10.4-19.5
				c0.7,1.1-0.5,3.7,0,5c1.7,4.4,3.3,8.9,5,13.3c-0.5-1.4,0.4-3.5,0-5c-2.2-8.7-4.6-17.4-7.3-26c0,1.7,0,3.3,0,5
				c5.1,13.6,10.3,27.2,15.4,40.8c-0.5-1.4,0.5-3.5,0-5c-3.2-9-6.4-18.1-9.5-27.1c0,1.7,0,3.3,0,5c4.3,12,8.6,23.9,12.9,35.9
				c0-1.7,0-3.3,0-5c-5-11.8-9.9-23.6-14.9-35.4c0.6,1.4-0.4,3.5,0,5c6.3,20.9,14.1,41.2,22.1,61.5c0-1.7,0-3.3,0-5
				c-6-12.9-11.9-25.8-17.9-38.7c0,1.7,0,3.3,0,5c5.3,10.2,10.6,20.4,15.8,30.5c-0.7-1.3,0.6-3.6,0-5c-5.6-13.1-10.2-26.7-13.5-40.5
				c0,1.7,0,3.3,0,5c3.3,5.5,6.7,11,10,16.5c-0.7-1.2,0.4-3.7,0-5c-2.2-6.5-4.9-12.7-8.1-18.7c0.7,1.3-0.5,3.6,0,5
				c2.1,5.9,4.3,11.7,6.4,17.6c0-1.7,0-3.3,0-5c-4.7-11.4-9.5-22.7-14.2-34.1c0,1.7,0,3.3,0,5c6.7,14,13.4,28.1,17.8,43
				c0-1.7,0-3.3,0-5c-4.4-9.8-8.8-19.6-13.2-29.4c0.6,1.4-0.6,3.6,0,5c7.5,18.5,15.6,36.9,24.3,54.9c0-1.7,0-3.3,0-5
				c-4.3-7.6-8.6-15.2-13-22.7c0.7,1.2-0.6,3.6,0,5c3.9,9,8.2,17.7,13,26.3c0-1.7,0-3.3,0-5c-4.9-7.8-9.9-15.6-14.8-23.4
				c0.7,1.2-0.6,3.7,0,5c5.6,11.4,11.3,22.8,16.9,34.2c0-1.7,0-3.3,0-5c-3.8-6.3-7.7-12.6-11.5-18.9c0.7,1.2-0.5,3.7,0,5
				c3.6,8.7,7.7,17.1,12.5,25.2c-0.7-1.2,0.6-3.7,0-5c-3.6-8-7.1-15.9-10.7-23.9c0,1.7,0,3.3,0,5c6.9,10,13.2,20.4,18.9,31.1
				c-0.7-1.2,0.4-3.6,0-5c-2.8-9.7-6.4-19.1-10.5-28.3c0,1.7,0,3.3,0,5c6.3,12.9,12.6,25.7,18.8,38.6c0-1.7,0-3.3,0-5
				c-5-5.7-10.1-11.4-15.1-17.1c0.8,0.9-0.7,3.9,0,5c6.2,8.9,12.3,17.8,18.5,26.8c0-1.7,0-3.3,0-5c-6.3-6.4-11.8-13.5-16.3-21.2
				c0,1.7,0,3.3,0,5c3.8,5.6,7.8,10.9,12.2,16c3.8,4.5,9,8.6,11.3,14.1c2.3,5.5,4.3,10.8,7.4,16.1c3.1,5.3,6.3,10.6,8.5,16.4
				c0-1.7,0-3.3,0-5c-5.6-7.6-10.6-15.6-15.2-23.9c0,1.7,0,3.3,0,5c9,8.8,18.2,17.4,27.5,25.9c-0.8-0.7,0.7-4,0-5
				c-6.9-9.5-14.1-18.6-21.7-27.5c0.8,1-0.8,4,0,5c6.8,8.3,14.3,16,22.5,23c-0.8-0.7,0.8-4.3,0-5c-3.7-3.2-7.3-6.5-11-9.7
				c0,1.7,0,3.3,0,5c4.8,2.5,9.5,5.3,14,8.3c0-1.7,0-3.3,0-5c-3.3-1.3-6.3-3-9-5.3c0,1.7,0,3.3,0,5c4.1,1.6,8.2,3.2,12.3,4.8
				c-0.5-0.2,0.6-4.8,0-5c-4.1-1.6-8.2-3.2-12.3-4.8c0.6,0.2-0.6,4.5,0,5c2.8,2.3,5.7,4,9,5.3c-0.6-0.2,0.6-4.6,0-5
				c-4.5-3-9.2-5.8-14-8.3c0.7,0.4-0.7,4.4,0,5c3.7,3.2,7.3,6.5,11,9.7c0-1.7,0-3.3,0-5c-8.2-7-15.7-14.7-22.5-23c0,1.7,0,3.3,0,5
				c7.6,8.9,14.8,18.1,21.7,27.5c0-1.7,0-3.3,0-5c-9.3-8.5-18.4-17.1-27.5-25.9c0.8,0.8-0.6,4,0,5c4.5,8.3,9.6,16.2,15.2,23.9
				c-0.7-1,0.5-3.8,0-5c-2.2-5.8-5.4-11.1-8.5-16.4c-3.1-5.2-5.1-10.5-7.4-16.1c-2.3-5.5-7.5-9.6-11.3-14.1
				c-4.4-5.1-8.4-10.5-12.2-16c0.8,1.1-0.7,3.8,0,5c4.6,7.8,10,14.8,16.3,21.2c-0.8-0.8,0.7-4,0-5c-6.2-8.9-12.3-17.8-18.5-26.8
				c0,1.7,0,3.3,0,5c5,5.7,10.1,11.4,15.1,17.1c-0.8-0.9,0.6-3.9,0-5c-6.3-12.9-12.6-25.7-18.8-38.6c0.7,1.3-0.6,3.6,0,5
				c4.2,9.2,7.7,18.6,10.5,28.3c0-1.7,0-3.3,0-5c-5.7-10.7-12-21.1-18.9-31.1c0.8,1.1-0.6,3.7,0,5c3.6,8,7.1,15.9,10.7,23.9
				c0-1.7,0-3.3,0-5c-4.8-8.1-9-16.5-12.5-25.2c0,1.7,0,3.3,0,5c3.8,6.3,7.7,12.6,11.5,18.9c-0.7-1.2,0.6-3.7,0-5
				c-5.6-11.4-11.3-22.8-16.9-34.2c0,1.7,0,3.3,0,5c4.9,7.8,9.9,15.6,14.8,23.4c-0.7-1.2,0.7-3.7,0-5c-4.7-8.6-9-17.3-13-26.3
				c0,1.7,0,3.3,0,5c4.3,7.6,8.6,15.2,13,22.7c-0.7-1.2,0.6-3.7,0-5c-8.7-18.1-16.8-36.4-24.3-54.9c0,1.7,0,3.3,0,5
				c4.4,9.8,8.8,19.6,13.2,29.4c-0.6-1.4,0.4-3.5,0-5c-4.4-14.9-11.1-29-17.8-43c0.6,1.3-0.6,3.6,0,5c4.7,11.4,9.5,22.7,14.2,34.1
				c-0.6-1.4,0.5-3.5,0-5c-2.1-5.9-4.3-11.7-6.4-17.6c0,1.7,0,3.3,0,5c3.3,6,6,12.2,8.1,18.7c0-1.7,0-3.3,0-5
				c-3.3-5.5-6.7-11-10-16.5c0.7,1.1-0.3,3.7,0,5c3.4,13.9,7.9,27.4,13.5,40.5c0-1.7,0-3.3,0-5c-5.3-10.2-10.6-20.4-15.8-30.5
				c0.7,1.3-0.6,3.6,0,5c6,12.9,11.9,25.8,17.9,38.7c-0.6-1.4,0.6-3.6,0-5c-7.9-20.3-15.8-40.6-22.1-61.5c0,1.7,0,3.3,0,5
				c5,11.8,9.9,23.6,14.9,35.4c-0.6-1.4,0.5-3.5,0-5c-4.3-12-8.6-23.9-12.9-35.9c0.5,1.5-0.5,3.5,0,5c3.2,9,6.4,18.1,9.5,27.1
				c0-1.7,0-3.3,0-5c-5.1-13.6-10.3-27.2-15.4-40.8c0.5,1.4-0.5,3.5,0,5c2.6,8.6,5.1,17.3,7.3,26c0-1.7,0-3.3,0-5
				c-1.7-4.4-3.3-8.9-5-13.3c0,1.7,0,3.3,0,5c3.9,6.2,7.4,12.7,10.4,19.5c0-1.7,0-3.3,0-5c-4.1-6.8-8.2-13.7-12.3-20.5
				C202.3,180.8,200.8,183.3,201.5,184.6L201.5,184.6z"/>
		</g>
	</g>
	<g>
		<g>
			<path class="st1" d="M216.4,221.1c2.4,4.7,4.7,9.4,7.1,14.1c0-1.7,0-3.3,0-5c-2.5-4-4.7-8.1-6.5-12.4c0,1.7,0,3.3,0,5
				c0.8,1.7,1.5,3.7,2.4,5.3c0.9,1.5,0.6,2.3,1,0.2c0.2-1,0-2.1,0-3.1c0-2.8-0.1-5.2-1.1-8c0,1.7,0,3.3,0,5c1.6,4.3,3.3,8.7,4.9,13
				c0-1.7,0-3.3,0-5c-2.2-4.3-4.4-8.7-6.6-13c0.7,1.3-0.7,3.6,0,5c6.5,13.5,13,27,19.6,40.5c0-1.7,0-3.3,0-5
				c-1.9-3.9-3.8-7.9-5.8-11.8c0.6,1.3-0.6,3.6,0,5c2.2,4.6,4.8,8.8,8,12.7c-0.8-1,0.7-3.9,0-5c-2.4-4-4.7-7.9-7.1-11.9
				c0.7,1.2-0.7,3.7,0,5c3.6,7.3,7.2,14.5,10.9,21.8c0-1.7,0-3.3,0-5c-3.5-6.9-7-13.8-10.5-20.7c0.7,1.3-0.6,3.6,0,5
				c5.5,12.7,11.5,25.2,18,37.5c0-1.7,0-3.3,0-5c-4.8-6.6-9.7-13.1-14.5-19.7c0.8,1.1-0.6,3.8,0,5c7.5,15.3,16.5,29.8,26.9,43.3
				c-0.8-1,0.7-3.8,0-5c-4.4-7.5-8.1-15.4-10.9-23.6c0,1.7,0,3.3,0,5c6.3,6.8,12,14.1,17.2,21.7c-0.8-1.1,0.8-3.8,0-5
				c-5.2-7.6-11-14.9-17.2-21.7c0.7,0.8-0.4,3.9,0,5c2.9,8.2,6.5,16.1,10.9,23.6c0-1.7,0-3.3,0-5c-10.4-13.5-19.3-28-26.9-43.3
				c0,1.7,0,3.3,0,5c4.8,6.6,9.7,13.1,14.5,19.7c-0.8-1.1,0.6-3.8,0-5c-6.5-12.2-12.5-24.7-18-37.5c0,1.7,0,3.3,0,5
				c3.5,6.9,7,13.8,10.5,20.7c-0.7-1.3,0.7-3.7,0-5c-3.6-7.3-7.2-14.5-10.9-21.8c0,1.7,0,3.3,0,5c2.4,4,4.7,7.9,7.1,11.9
				c0-1.7,0-3.3,0-5c-3.2-3.9-5.9-8.1-8-12.7c0,1.7,0,3.3,0,5c1.9,3.9,3.8,7.9,5.8,11.8c-0.6-1.3,0.7-3.6,0-5
				c-6.5-13.5-13-27-19.6-40.5c0,1.7,0,3.3,0,5c2.2,4.3,4.4,8.7,6.6,13c-0.7-1.3,0.5-3.6,0-5c-1.6-4.3-3.3-8.7-4.9-13
				c0.5,1.4-0.5,3.5,0,5c0.6,1.6,0.9,2.8,1.1,4.5c0-1.4,0-2.8,0-4.3c0,3.3-0.4,1.9-1.4-0.3c-0.7-1.5-1.4-3-2-4.4
				c0.6,1.4-0.6,3.6,0,5c1.8,4.3,4,8.4,6.5,12.4c-0.7-1.2,0.6-3.7,0-5c-2.4-4.7-4.7-9.4-7.1-14.1
				C217.1,217.4,215.7,219.7,216.4,221.1L216.4,221.1z"/>
		</g>
	</g>
	<g>
		<g>
			<path class="st1" d="M257.1,297.3c4.6,6.6,9.2,13.2,13.8,19.8c0-1.7,0-3.3,0-5c-5.6-7.4-11.1-14.8-16.7-22.2c0,1.7,0,3.3,0,5
				c7.6,9.9,15.2,19.8,22.9,29.7c0-1.7,0-3.3,0-5c-6-7.4-11.4-15.2-16.1-23.5c0,1.7,0,3.3,0,5c2.8,3.5,5.4,7.3,7.6,11.2
				c0-1.7,0-3.3,0-5c-5.9-9.8-11.5-19.7-16.6-30c0,1.7,0,3.3,0,5c4.9,6.8,9.7,13.7,14.6,20.5c-0.8-1.1,0.7-3.8,0-5
				c-4-6.6-8.7-12.6-14.2-18c0.8,0.8-0.7,4,0,5c10.6,14.2,21.1,28.3,31.7,42.5c0-1.7,0-3.3,0-5c-6.3-3.6-11.5-8.4-15.7-14.4
				c0.8,1.1-0.6,3.7,0,5c1.2,2.4,2.5,4.6,3.9,6.8c-0.8-1.1,0.7-3.7,0-5c-1.8-3.4-3.8-6.5-6.3-9.5c0.8,1-0.7,3.9,0,5
				c5.7,8.8,12.8,16.3,21.3,22.4c0-1.7,0-3.3,0-5c-4.4-0.8-8.2-2.4-11.8-5c0,1.7,0,3.3,0,5c4.5,0.3,8.6,1.4,12.7,3.4
				c-0.6-0.3,0.5-4.4,0-5c-4.6-5.6-9.2-11.1-13.9-16.7c0.8,1-0.8,4,0,5c4.6,5.6,9.2,11.1,13.9,16.7c0-1.7,0-3.3,0-5
				c-4.1-1.9-8.2-3-12.7-3.4c0.3,0-0.4,4.7,0,5c3.7,2.5,7.5,4.1,11.8,5c-0.4-0.1,0.5-4.7,0-5c-8.5-6.1-15.6-13.6-21.3-22.4
				c0,1.7,0,3.3,0,5c2.5,3,4.6,6.1,6.3,9.5c0-1.7,0-3.3,0-5c-1.5-2.2-2.7-4.4-3.9-6.8c0,1.7,0,3.3,0,5c4.1,6,9.3,10.8,15.7,14.4
				c-0.7-0.4,0.5-4.3,0-5c-10.6-14.2-21.1-28.3-31.7-42.5c0,1.7,0,3.3,0,5c5.5,5.4,10.2,11.4,14.2,18c0-1.7,0-3.3,0-5
				c-4.9-6.8-9.7-13.7-14.6-20.5c0.8,1.1-0.6,3.8,0,5c5.1,10.2,10.7,20.2,16.6,30c-0.7-1.2,0.7-3.7,0-5c-2.3-3.9-4.8-7.6-7.6-11.2
				c0.8,1-0.7,3.8,0,5c4.7,8.3,10,16.1,16.1,23.5c-0.8-1,0.8-4,0-5c-7.6-9.9-15.2-19.8-22.9-29.7c0.8,1-0.8,3.9,0,5
				c5.6,7.4,11.1,14.8,16.7,22.2c-0.8-1.1,0.8-3.9,0-5c-4.6-6.6-9.2-13.2-13.8-19.8C257.9,293.4,256.3,296.1,257.1,297.3
				L257.1,297.3z"/>
		</g>
	</g>
	<g>
		<g>
			<path class="st1" d="M205.6,179.7c0,9.2,2.5,18,4.4,26.9c0-1.7,0-3.3,0-5c-5.6-14.6-10.2-29.5-14.8-44.4c0,1.7,0,3.3,0,5
				c5.7,12.2,11.3,24.3,17,36.5c-0.6-1.3,0.3-3.6,0-5c-2.6-11.1-5.3-22.1-7.9-33.2c0.3,1.5-0.1,3.4,0,4.9c0.3,7.1,1.6,14,4.1,20.7
				c0-1.7,0-3.3,0-5c-1.9-4.5-3.9-9.1-5.8-13.6c0.6,1.3-0.3,3.5,0,5c1.3,6.8,3.4,13.4,5.5,20c0-1.7,0-3.3,0-5
				c-3.1-6.4-6.7-12.5-10.8-18.2c0.8,1.1-0.6,3.7,0,5c3.5,7.7,7.2,15.3,11,22.9c-0.7-1.3,0.7-3.7,0-5c-3.8-7.6-7.4-15.2-11-22.9
				c0,1.7,0,3.3,0,5c4.1,5.8,7.7,11.8,10.8,18.2c-0.6-1.3,0.5-3.6,0-5c-2.2-6.6-4.3-13.1-5.5-20c0,1.7,0,3.3,0,5
				c1.9,4.5,3.9,9.1,5.8,13.6c-0.6-1.4,0.5-3.5,0-5c-2.4-6.7-3.8-13.4-4-20.5c0,1.6,0,3.3,0,4.9c2.6,11.1,5.3,22.1,7.9,33.2
				c0-1.7,0-3.3,0-5c-5.7-12.2-11.3-24.3-17-36.5c0.6,1.3-0.4,3.6,0,5c4.6,14.9,9.2,29.8,14.8,44.4c-0.5-1.4,0.3-3.5,0-5
				c-1.5-7.1-3.7-14.3-4.4-21.6c0,1.3,0,2.5,0,3.8c0-0.5,0-1.1,0-1.6C205.7,181.4,205.6,176.7,205.6,179.7L205.6,179.7z"/>
		</g>
	</g>
	<g>
		<g>
			<path class="st1" d="M206.4,192.6c7.7,12,12.2,25.6,16.5,39.1c0-1.7,0-3.3,0-5c-5.5-6.8-8.4-15.4-14.6-21.8c0.7,0.7-0.4,3.9,0,5
				c2.7,7.1,5.8,14,9.4,20.7c-0.7-1.3,0.5-3.6,0-5c-2.9-8.4-5.9-16.7-8.4-25.3c-1.2-4.3-2.4-8.5-3.3-12.9c-0.2-1-0.4-5.8-1-2.4
				c-0.1,0.3,0,0.7,0,1c-0.2,4.3,0.8,8.2,1.8,12.4c2.1,8.7,4.4,17.3,6.8,25.9c-0.4-1.5,0.4-3.4,0-5c-1.6-5.8-3.2-11.7-4.7-17.6
				c-1.4-5.4-3.3-11.1-3.8-16.7c0,1.7,0,3.3,0,5c0.5-3.5,0.8,1.4,1,2.4c0.4,1.9,0.9,3.7,1.3,5.5c0.9,3.7,2,7.3,3.1,11
				c2.2,7.3,4.8,14.4,7.3,21.6c0-1.7,0-3.3,0-5c-3.5-6.7-6.7-13.6-9.4-20.7c0,1.7,0,3.3,0,5c6.2,6.4,9,14.9,14.6,21.8
				c-0.7-0.9,0.4-3.8,0-5c-4.3-13.5-8.8-27.1-16.5-39.1C207.2,188.7,205.6,191.4,206.4,192.6L206.4,192.6z"/>
		</g>
	</g>
	<g>
		<g>
			<path class="st1" d="M227,243c-0.9-2.2-1.7-4.3-2.6-6.5c0,1.7,0,3.3,0,5c6.5,9.5,12.1,19.6,16.7,30.2c0-1.7,0-3.3,0-5
				c-4.3-8.6-8.6-17.3-13-25.9c0,1.7,0,3.3,0,5c4,5.7,7.9,11.3,11.9,17c-0.8-1.1,0.6-3.7,0-5c-2.4-5.2-5.1-10.1-9-14.4
				c0.8,0.9-0.6,3.9,0,5c7.5,12.9,14.4,26.2,20.6,39.7c0-1.7,0-3.3,0-5c-7.2-6.5-11-15.3-14.6-24.1c0,1.7,0,3.3,0,5
				c6.4,11.5,13,22.8,20,33.9c-0.7-1.2,0.8-3.8,0-5c-6.9-11.2-13.6-22.5-20-33.9c0.7,1.3-0.6,3.6,0,5c3.6,8.8,7.4,17.6,14.6,24.1
				c-0.7-0.7,0.5-4,0-5c-6.2-13.6-13.1-26.8-20.6-39.7c0,1.7,0,3.3,0,5c3.9,4.3,6.5,9.2,9,14.4c0-1.7,0-3.3,0-5
				c-4-5.7-7.9-11.3-11.9-17c0.8,1.1-0.6,3.7,0,5c4.3,8.6,8.6,17.3,13,25.9c-0.7-1.3,0.6-3.6,0-5c-4.6-10.6-10.1-20.7-16.7-30.2
				c0.7,1.1-0.5,3.7,0,5c0.9,2.2,1.7,4.3,2.6,6.5C226.4,246.6,227.6,244.5,227,243L227,243z"/>
		</g>
	</g>
	<g>
		<g>
			<path class="st1" d="M285,331c4.2,4.4,8.6,8.6,13.2,12.7c0-1.7,0-3.3,0-5c-5.8-4.5-11.5-9.2-17-14c0,1.7,0,3.3,0,5
				c3.5,2.6,7.2,4.9,11,7c-0.7-0.4,0.6-4.3,0-5c-5.4-5.7-10.8-11.4-16.2-17c0,1.7,0,3.3,0,5c4.1,2.8,7.9,5.9,11.5,9.3
				c0-1.7,0-3.3,0-5c-2.8-2.7-5.7-5.4-8.5-8c0,1.7,0,3.3,0,5c3.2,3,6.5,5.8,9.9,8.5c-0.8-0.6,0.8-4.3,0-5
				c-7.3-6.5-13.9-13.6-20-21.2c0.8,1-0.8,3.9,0,5c3.9,5.3,8.5,9.9,13.2,14.4c-0.8-0.8,0.8-4.2,0-5c-5.7-5.7-11.5-11.4-17.2-17.1
				c0.8,0.8-0.8,4,0,5c5.3,6.4,10.7,12.9,16,19.3c0-1.7,0-3.3,0-5c-4.8-4.9-9.7-9.7-15.4-13.6c0.8,0.5-0.7,4.2,0,5
				c6.7,7.6,14,14.6,22,20.8c-0.8-0.6,0.8-4.4,0-5c-8-6.2-15.3-13.1-22-20.8c0,1.7,0,3.3,0,5c5.7,3.9,10.6,8.7,15.4,13.6
				c-0.8-0.8,0.8-4,0-5c-5.3-6.4-10.7-12.9-16-19.3c0,1.7,0,3.3,0,5c5.7,5.7,11.5,11.4,17.2,17.1c0-1.7,0-3.3,0-5
				c-4.7-4.6-9.3-9.1-13.2-14.4c0,1.7,0,3.3,0,5c6.1,7.6,12.7,14.7,20,21.2c0-1.7,0-3.3,0-5c-3.4-2.7-6.7-5.6-9.9-8.5
				c0.8,0.8-0.8,4.2,0,5c2.8,2.7,5.7,5.4,8.5,8c-0.8-0.8,0.8-4.2,0-5c-3.6-3.4-7.4-6.5-11.5-9.3c0.8,0.5-0.7,4.2,0,5
				c5.4,5.7,10.8,11.4,16.2,17c0-1.7,0-3.3,0-5c-3.8-2.1-7.5-4.4-11-7c0.8,0.6-0.8,4.3,0,5c5.5,4.8,11.2,9.5,17,14
				c-0.8-0.6,0.8-4.3,0-5c-4.6-4-9-8.3-13.2-12.7C285.8,326.8,284.2,330.1,285,331L285,331z"/>
		</g>
	</g>
	<g>
		<g>
			<path class="st1" d="M289.8,333.5c-6.1-2.9-11.6-6.5-16.7-10.9c0,1.7,0,3.3,0,5c8,3.6,16,7.2,24,10.8c-0.6-0.3,0.5-4.4,0-5
				c-3.2-3.7-6.8-6.9-10.7-9.8c0.8,0.6-0.8,4.4,0,5c3.9,2.9,7.5,6.1,10.7,9.8c0-1.7,0-3.3,0-5c-8-3.6-16-7.2-24-10.8
				c0.6,0.3-0.6,4.4,0,5c5.1,4.4,10.6,8.1,16.7,10.9C289.2,338.2,290.4,333.8,289.8,333.5L289.8,333.5z"/>
		</g>
	</g>
	<g>
		<g>
			<path class="st1" d="M217.5,228.5c6.5,11.1,13,22.3,19.6,33.4c0-1.7,0-3.3,0-5c-6-8.5-12.1-17-18.1-25.6c0,1.7,0,3.3,0,5
				c3.4,4.7,6.7,9.4,10.1,14.1c-0.8-1.1,0.8-3.9,0-5c-3.4-4.7-6.7-9.4-10.1-14.1c0.8,1.1-0.8,3.9,0,5c6,8.5,12.1,17,18.1,25.6
				c-0.8-1.1,0.7-3.8,0-5c-6.5-11.1-13-22.3-19.6-33.4C218.2,224.7,216.7,227.3,217.5,228.5L217.5,228.5z"/>
		</g>
	</g>
</g>
<g id="Layer_2">
	<g id="handle_fill_x3F__x3F__x3F_">
		<g>
			<g>
				<path class="st11" d="M203.4,189c-1.2-3.3-2.4-6.7-3.5-10.1c-3.9,1.1-7.7,2.1-11.6,3.2c1.3,3.2,2.7,6.4,4,9.6
					c1.3,3,5.6,3.7,8.2,2.2c3.1-1.8,3.5-5.2,2.2-8.2c-1-2.3-1.9-4.3-2.8-6.8c-1.2-3-4-5.1-7.4-4.2c-3,0.8-5.2,4.3-4.2,7.4
					c1.1,3.4,2.3,6.7,3.5,10.1c1.1,3,4.1,5.1,7.4,4.2C202.1,195.6,204.5,192.1,203.4,189L203.4,189z"/>
			</g>
		</g>
		<g>
			<g>
				<path class="st11" d="M192.9,197.4c0.5,1,1,2.1,1.5,3.1c0.6,1.3,2.2,2.4,3.6,2.8c1.4,0.4,3.3,0.2,4.6-0.6s2.4-2.1,2.8-3.6
					c0.4-1.6,0.1-3.1-0.6-4.6c-0.5-1-1-2.1-1.5-3.1c-0.6-1.3-2.2-2.4-3.6-2.8c-1.4-0.4-3.3-0.2-4.6,0.6s-2.4,2.1-2.8,3.6
					C191.9,194.4,192.2,195.9,192.9,197.4L192.9,197.4z"/>
			</g>
		</g>
		<g>
			<g>
				<path class="st11" d="M334.5,312.1c-0.6-2.6-1.3-5.2-1.8-7.9c-0.6-3.1-4.5-5.1-7.4-4.2c-3.3,1.1-4.8,4.1-4.2,7.4
					c0.5,2.6,1.2,5.3,1.8,7.9c0.7,3.1,4.4,5.2,7.4,4.2C333.5,318.5,335.3,315.4,334.5,312.1L334.5,312.1z"/>
			</g>
		</g>
		<g>
			<g>
				<path class="st11" d="M206.5,235.4c9.4,22.2,19.9,44,33.7,63.7c6.7,9.6,14.1,18.8,22.3,27.1c8.7,8.8,17.9,17.9,28.9,23.7
					c6.8,3.6,12.9-6.8,6.1-10.4c-10.4-5.4-19-14.1-27.1-22.4s-15.3-17.3-21.7-26.8c-12.9-19-22.9-39.8-31.8-61
					c-1.3-3-5.7-3.6-8.2-2.2C205.6,229,205.3,232.5,206.5,235.4L206.5,235.4z"/>
			</g>
		</g>
		<g>
			<g>
				<path class="st11" d="M186.4,181.1c-1,11.5,3.7,21.6,9.4,31.2c4,6.6,14.3,0.6,10.4-6.1c-4.8-8-8.7-15.7-7.8-25.2
					C199.1,173.4,187.1,173.5,186.4,181.1L186.4,181.1z"/>
			</g>
		</g>
		<g>
			<g>
				<path class="st11" d="M306.3,338.1c-5.2-1-10.2-2.3-15.1-4.4c-6.9-2.9-13,6.4-6.1,10.4c11.2,6.4,25.3,5.7,35.4-2.6
					c10.4-8.5,10.8-21.5,13.3-33.6c1.5-7.5-10-10.8-11.6-3.2c-1.7,8.2-1.5,18.5-7,25.3c-5.8,7.2-16.4,8.2-24.1,3.7
					c-2,3.5-4,6.9-6.1,10.4c5.8,2.5,11.7,4.4,17.9,5.6C310.7,351,313.9,339.5,306.3,338.1L306.3,338.1z"/>
			</g>
		</g>
		<g>
			<g>
				<path class="st11" d="M217.8,254.1c9.9,20.8,21,41.1,35.1,59.3c7,9.1,14.6,17.6,23.1,25.4c8.2,7.5,16.6,12.9,28.2,11.5
					c7.6-0.9,7.7-12.9,0-12c-4.3,0.5-8.9,0.3-12.7-2.1c-4.1-2.6-7.8-6.6-11.3-10c-7.6-7.4-14.6-15.5-20.9-24.1
					c-12.3-16.8-22.2-35.3-31.1-54.1C224.8,241,214.5,247.1,217.8,254.1L217.8,254.1z"/>
			</g>
		</g>
		<g>
			<g>
				<path class="st11" d="M269.9,318.1c-1.3,0.1-1.2,0.2-2.5-0.2c-2.8-0.9-6,0.8-7,3.4c-1,2.5-0.3,6.2,2.4,7.4
					c0.3,0.1,1.9,1.2,1,0.4c0.4,0.3,0.8,0.7,1.1,1.1c0.2,0.3,0.5,0.5,0.7,0.8c-0.4-0.5-0.3-0.5,0.1,0.1c0.4,0.5,0.8,1,1.2,1.5
					c2.3,3,4.6,5.1,8.2,6.6c3,1.2,6.5-1.3,7.3-4.2c0.9-3.4-1.2-6.1-4.2-7.3c0.6,0.2,0.6,0.2,0-0.1c0.5,0.4,0.5,0.4,0,0
					c-0.4-0.4-0.7-0.8-1.1-1.2c-1.2-1.2,0.6,0.9-0.4-0.5c-0.4-0.5-0.8-1-1.2-1.5c-1.8-2.4-3.8-4.8-6.7-6.1
					c-1.5,3.6-3.1,7.3-4.6,10.9c1.8,0.6,3.8,0.8,5.7,0.6c3.2-0.3,6-2.5,6-6C275.9,321.1,273.1,317.8,269.9,318.1L269.9,318.1z"/>
			</g>
		</g>
		<g>
			<g>
				<path class="st11" d="M279,338.1c-0.2,3,1.6,5.7,4,7.4c0.8,0.5,1.8,1,2.7,1.2c1.4,0.3,3.1,0.4,4.5-0.2s2.8-1.3,3.6-2.7
					c0.6-1.2,0.9-2.4,0.7-3.8c-0.4-2.8-2.9-5.3-5.8-5.2c-0.6,0-1.2,0-1.7,0.1c-1.6,0.1-3.1,0.6-4.2,1.7c-1,1-1.8,2.7-1.7,4.2
					c0.1,3.1,2.6,6.1,6,6c0.6,0,1.2,0,1.7-0.1c-0.5-3.9-1.1-7.8-1.6-11.7c-0.2,0.1-0.4,0.2-0.7,0.2c0.5-0.1,1.1-0.1,1.6-0.2
					c-0.2,0-0.3,0-0.5,0c0.5,0.1,1.1,0.1,1.6,0.2c-0.2,0-0.5-0.1-0.7-0.2c0.5,0.2,0.9,0.4,1.4,0.6c-0.3-0.1-0.5-0.3-0.8-0.5
					c0.4,0.3,0.8,0.6,1.2,0.9c-0.2-0.2-0.3-0.3-0.5-0.5c0.3,0.4,0.6,0.8,0.9,1.2c-0.1-0.2-0.3-0.4-0.4-0.6c0.2,0.5,0.4,0.9,0.6,1.4
					c-0.1-0.2-0.1-0.3-0.1-0.5c0.1,0.5,0.1,1.1,0.2,1.6c0-0.2,0-0.3,0-0.5c0.2-3.1-2.9-6.1-6-6C281.6,332.3,279.2,334.8,279,338.1
					L279,338.1z"/>
			</g>
		</g>
		<g>
			<g>
				<path class="st11" d="M275.4,337.3c4.3,4.3,9.7,7.4,15.6,8.9c7.4,1.9,10.6-9.5,3.2-11.5c-4-1-7.4-3-10.3-5.9
					C278.4,323.4,270,331.8,275.4,337.3L275.4,337.3z"/>
			</g>
		</g>
		<g>
			<g>
				<path class="st11" d="M202.2,212.3c-4.5,1.3,0.9,9.8,2,12.1c0.9-0.5,1.7-1,2.6-1.5c-2.6-4-5.1-7.9-7.7-11.9
					c-1-1.6-3.5-0.2-2.6,1.5c1.9,3.5,3.7,7.1,5.6,10.6c0.9,1.7,3.3,0.2,2.6-1.5c-1.5-3.4-3.4-6.2-6-8.8c-1.3-1.3-3,0.3-2.3,1.8
					c2.5,5.3,5,10.6,7.5,15.9c0.7,1.6,3.1,0.4,2.7-1.1c-1.1-4.4-2.7-8.7-4.5-12.9c-0.8-1.7-3.3-0.2-2.6,1.5c2.6,5.8,5.6,11.5,8.8,17
					c1,1.6,3.6,0.1,2.6-1.5c-3.3-5.5-6.2-11.1-8.8-17c-0.9,0.5-1.7,1-2.6,1.5c1.8,4,3.2,8,4.2,12.2c0.9-0.4,1.8-0.8,2.7-1.1
					c-2.5-5.3-5-10.6-7.5-15.9c-0.8,0.6-1.6,1.2-2.3,1.8c2.4,2.4,4.2,5.1,5.6,8.2c0.9-0.5,1.7-1,2.6-1.5c-1.9-3.5-3.7-7.1-5.6-10.6
					c-0.9,0.5-1.7,1-2.6,1.5c2.6,4,5.1,7.9,7.7,11.9c1.1,1.6,3.4,0.2,2.6-1.5c-0.3-0.7-2.9-7.9-3.8-7.7
					C204.8,214.6,204.1,211.8,202.2,212.3L202.2,212.3z"/>
			</g>
		</g>
		<g>
			<g>
				<path class="st11" d="M202.1,221.1c0.1,3.7,0.6,7.2,1.6,10.8c0.4,1.6,3.1,1.3,2.9-0.4c-0.8-7.5-2.4-14.8-4.1-22.1
					c-0.9,0.4-1.8,0.8-2.7,1.1c3.1,5.8,6.1,11.5,9.2,17.3c0.8,1.5,3.1,0.5,2.7-1.1c-2-7.7-4.6-15.2-7.8-22.5
					c-0.6-1.3-2.9-0.7-2.8,0.8c1.4,11.4,5.8,21.8,10.4,32.2c0.9-0.5,1.7-1,2.6-1.5c-3.8-6.7-7.6-13.5-11.5-20.2
					c-0.9,0.5-1.7,1-2.6,1.5c3.8,5.3,7.8,10.3,12.3,15.1c1.3,1.4,3.4-0.7,2.1-2.1c-4.2-4.6-8.2-9.4-11.8-14.5
					c-1.1-1.5-3.5-0.2-2.6,1.5c3.8,6.7,7.6,13.5,11.5,20.2c1,1.7,3.3,0.2,2.6-1.5c-4.4-9.9-8.7-19.9-10-30.7
					c-0.9,0.3-1.8,0.5-2.8,0.8c3.1,7.1,5.5,14.4,7.5,21.8c0.9-0.4,1.8-0.8,2.7-1.1c-3.1-5.8-6.1-11.5-9.2-17.3
					c-0.8-1.5-3.1-0.5-2.7,1.1c1.7,7,3.3,14.1,4,21.3c1-0.1,1.9-0.3,2.9-0.4c-0.9-3.3-1.4-6.6-1.5-10
					C205,219.2,202,219.2,202.1,221.1L202.1,221.1z"/>
			</g>
		</g>
		<g>
			<g>
				<path class="st11" d="M198.3,186.2c5.4,11.1,8.4,22.8,12.8,34.3c4.2,11.1,9.4,21.9,15.4,32.1c1,1.7,3.5,0.2,2.6-1.5
					c-6.5-11.1-12-22.7-16.4-34.8c-3.9-10.7-6.8-21.3-11.8-31.6C200,183,197.4,184.5,198.3,186.2L198.3,186.2z"/>
			</g>
		</g>
		<g>
			<g>
				<path class="st11" d="M199.9,199.5c1.8,11.1,10.1,19.8,11.9,30.9c1-0.3,1.9-0.5,2.9-0.8c-4.2-10.7-8.3-21.4-11.8-32.3
					c-1,0.3-1.9,0.5-2.9,0.8c1.7,4.9,3.6,9.6,6,14.2c0.9,1.7,3.4,0.2,2.6-1.5c-2.2-4.4-4.1-8.9-5.7-13.5c-0.6-1.8-3.5-1-2.9,0.8
					c3.5,10.9,7.7,21.6,11.8,32.3c0.7,1.8,3.2,1.1,2.9-0.8c-1.7-11.2-10-19.8-11.9-30.9C202.5,196.8,199.6,197.6,199.9,199.5
					L199.9,199.5z"/>
			</g>
		</g>
		<g>
			<g>
				<path class="st11" d="M198.4,186.5c6.6,11.1,8.4,23.6,13.5,35.3c5.4,12.4,11.1,24.7,16.8,37c0.8,1.7,3.4,0.2,2.6-1.5
					c-5.8-12.2-11.5-24.5-16.8-37c-5.1-11.7-6.8-24.2-13.5-35.3C200,183.4,197.4,184.9,198.4,186.5L198.4,186.5z"/>
			</g>
		</g>
		<g>
			<g>
				<path class="st11" d="M199.9,187.5c8.2,23.9,17.6,47.2,28.3,70.1c0.9-0.5,1.7-1,2.6-1.5c-2.7-5.1-5.5-10.3-8.2-15.4
					c-0.9-1.7-3.3-0.2-2.6,1.5c2,4.5,4.5,8.7,7.5,12.6c1.1,1.5,3.7,0,2.6-1.5c-3-3.9-5.5-8.1-7.5-12.6c-0.9,0.5-1.7,1-2.6,1.5
					c2.7,5.1,5.5,10.3,8.2,15.4c0.9,1.7,3.4,0.2,2.6-1.5c-10.5-22.6-19.9-45.8-28-69.4C202.2,184.9,199.3,185.6,199.9,187.5
					L199.9,187.5z"/>
			</g>
		</g>
		<g>
			<g>
				<path class="st11" d="M222.8,243.8c0.6,2.1,1.6,4.2,2.8,6c1.1,1.6,3.6,0.1,2.6-1.5c-1.1-1.7-1.9-3.4-2.5-5.3
					C225.2,241.2,222.3,242,222.8,243.8L222.8,243.8z"/>
			</g>
		</g>
		<g>
			<g>
				<path class="st11" d="M217.7,236.1c2,3.6,4,7.2,6,10.9c0.8,1.5,3.3,0.5,2.7-1.1c-2.6-7.4-9.7-13.2-9.8-21.4c0-1.9-3-1.9-3,0
					c0.1,8.8,7.1,14.4,9.9,22.2c0.9-0.4,1.8-0.8,2.7-1.1c-2-3.6-4-7.2-6-10.9C219.4,233,216.8,234.5,217.7,236.1L217.7,236.1z"/>
			</g>
		</g>
	</g>
	<g id="umbrella">
		<path class="st12" d="M330.1,18.6"/>
		<g id="XMLID_67_">
			<g>
				<path class="st13" d="M379.1,90.6c18.4,0.5-85.6,3.7-98,82c0.5,0.8-0.3,1-2.1,0.8C212.3,26.5,130.1,40.6,130.1,40.6l-0.1-0.2
					c24.1-10.9,53.4-18.6,88.9-21.9C329.7,8.3,379.1,90.6,379.1,90.6z"/>
				<path class="st14" d="M279,173.4c-14.4-1.2-95.3-24.9-132.9,70.2c0,0-1-0.3-2.9-0.6c-17.8-11.8-50.7-162.7-13.1-202.4
					C130.1,40.6,212.3,26.5,279,173.4z"/>
				<path class="st15" d="M130,40.4l0.1,0.2c-37.6,39.7-4.8,190.6,13.1,202.4c-13.2-2.3-68.3-8.4-107.1,41.6
					C27.3,288.8-16.8,106.6,130,40.4z"/>
			</g>
			<g>
				<path class="st20" d="M130,40.4c24.1-10.9,53.4-18.6,88.9-21.9C329.8,8.3,379.1,90.6,379.1,90.6c18.4,0.5-85.6,3.7-98,82
					c0.5,0.8-0.3,1-2.1,0.8c-14.4-1.2-95.3-24.9-132.9,70.2c0,0-1-0.3-2.9-0.6c-13.2-2.3-68.3-8.4-107.1,41.6
					C27.3,288.8-16.8,106.6,130,40.4z"/>
				<path class="st20" d="M146.1,243.6c-0.9,0.3-1.9,0.1-2.9-0.6c-17.8-11.8-50.7-162.7-13.1-202.4c0,0,82.2-14.1,148.9,132.8
					c0,0.1,0,0.1,0.1,0.2"/>
			</g>
		</g>
	</g>
	<g id="handl">
		<path class="st20" d="M334.1,305.6c0,16.8-6.5,40.5-27.5,43.5c-8,1-15,0-22-3c-16-7-26-21-36-36c-28-41-48.1-77.5-62.5-122.5"/>
		<path class="st20" d="M209.1,174.6c18.5,54.5,41.5,108.5,82.5,150.5c-2.4-2,17.3,13.8,20.5-19.5"/>
		<path class="st20" d="M311.6,308.1c-0.2-4.9,13.2-19.6,23,0"/>
	</g>
	<g id="Layer_7">
	</g>
	<g>
		<g>
			<path class="st1" d="M290.6,331.2c3.2,2.4,6.9,3.8,10.9,4c0-1.7,0-3.3,0-5c-1.8,0-3.7,0-5.5,0c-1.1,0-2.5,0-2.9-1.4
				c0.4,1.6-0.4,3.4,0,5c0.3,1.3,1.7,1.3,2.9,1.4c1.8,0,3.7,0,5.5,0c0,0,0.1-5,0-5c-4-0.2-7.7-1.6-10.9-4c0.2,0.1,0,2.2,0,2.5
				C290.5,329.1,290.3,331,290.6,331.2L290.6,331.2z"/>
		</g>
	</g>
	<g>
		<g>
			<path class="st1" d="M289.3,335.2c0,0,0-5,0-5C289.3,330.2,289.3,335.2,289.3,335.2L289.3,335.2z"/>
		</g>
	</g>
	<g>
		<g>
			<path class="st1" d="M293.7,328.8c-0.8,0-1.6,0-2.3,0c0,0,0,5,0,5c0.8,0,1.6,0,2.3,0C293.7,333.8,293.7,328.8,293.7,328.8
				L293.7,328.8z"/>
		</g>
	</g>
</g>
</svg>
